<?xml version="1.0" encoding="utf-8"?>
<!-- Generator: Adobe Illustrator 21.0.0, SVG Export Plug-In . SVG Version: 6.00 Build 0)  -->
<svg version="1.1" id="Capa_1" xmlns="http://www.w3.org/2000/svg" xmlns:xlink="http://www.w3.org/1999/xlink" x="0px" y="0px"
	 viewBox="0 0 478.7 478.7" style="enable-background:new 0 0 478.7 478.7;" xml:space="preserve">
<style type="text/css">
	.st0{fill:#FFFFFF;}
</style>
<g>
	<circle class="st0" cx="150.5" cy="319.5" r="9.4"/>
	<path class="st0" d="M388.7,383c-0.1-0.2-49-62.5-94.4-124.8c11.1-19.1,20.2-35.6,26.3-47.5c28.4-56.3,19.5-94.9,19.5-95
		c-3.4-16-21.2-64.9-28.8-79.5C306.1,25.2,296.1,16,283,9.6c-12.3-6-27.4-9.6-43.6-9.6s-31.3,3.6-43.6,9.6
		c-13.3,6.5-23.3,15.9-28.5,27c-7.8,17.1-24.8,61.5-28.6,79.1c0,0.1-8.9,38.8,19.5,95c3,5.9,7.3,13.9,12.2,22.8
		c4.6,8.2,9.4,16.7,14,24.6c-6.4,8.7-12.8,17.4-19.1,26c-3.3,4.3-2.4,10.5,1.9,13.8c4.3,3.3,10.5,2.4,13.8-2h0
		c35.6-47.3,71.6-98,90.5-134.7c10.7-20.8,18.1-36.1,23-48.2c2.6-6.3,4.6-11.7,6-16.6c4,2.5,7.5,5.2,10.5,8.2
		c4.9,4.7,8.6,9.9,10.7,15.4c0.8,4.3,5.5,35.5-18,82.2c-40,79.2-105.7,181.3-162.3,250.4l-33.1-62.9c7.8-10,16.9-21.6,26.8-34.3
		c3.2-4.1,2.4-10-1.8-13.2c-4.2-3.2-10.1-2.4-13.3,1.7c-17.8,23.3-30.1,39-30.2,39.1c-2.3,3-2.6,6.9-0.9,10.1l42.4,80.6
		c2.4,4.6,8.1,6.3,12.6,3.9c1.2-0.6,2.2-1.5,3-2.5c25-28.8,56.1-72.6,85.3-117.2c2.3-3.5,4.6-7.1,6.9-10.6
		c15.4,23.7,31.5,47.6,47.1,69.4c16,22.4,31.5,42.7,45.2,58.4c0.8,1,1.8,1.8,3,2.5c4.6,2.4,10.2,0.6,12.6-3.9l42.4-80.6
		C391.3,390,391,386,388.7,383z M196.5,241.5c-3.6-6.1-6.8-12-9.7-17.1c-4.7-8.6-8.9-16.3-11.9-22.2c-23.5-46.6-18.8-77.9-18-82.2
		c2.1-5.5,5.8-10.7,10.7-15.4c3-2.9,6.6-5.7,10.5-8.2c1.5,4.8,3.4,10.3,6,16.6c5,12.1,12.3,27.5,23,48.2c2.4,4.7,5.9,10.7,9.8,17.2
		c3.3,5.4,7.1,11.4,11.1,17.6C218.7,210.1,207.9,225.6,196.5,241.5z M277.3,106c-4.7,11.4-11.8,26.3-22.4,46.8
		c-3.7,7.2-9,16.1-15.5,26.2c-2.2-3.4-4.3-6.9-6.4-10.3c-3.7-6.1-6.9-11.7-9.2-16c-10.5-20.4-17.7-35.3-22.4-46.7
		c-3-7.2-5-13-6.3-17.9c5.9-2.2,12.3-4,19.1-5.3c7.9-1.5,16.3-2.3,25.1-2.3c8.8,0,17.2,0.8,25.1,2.3c6.8,1.3,13.2,3.1,19.1,5.3
		C282.3,93,280.3,98.8,277.3,106z M268,64.4c-9.1-1.7-18.7-2.7-28.6-2.7c-9.9,0-19.5,0.9-28.6,2.7c-13.3,2.5-26.9,7.1-38.7,13.9
		L184.5,44c3.3-7,10.3-13.1,19.5-17.6c9.8-4.8,22-7.6,35.4-7.6c13.4,0,25.7,2.8,35.4,7.6C284,30.9,290.9,37,294.3,44l12.4,34.3
		C294.9,71.5,281.3,66.9,268,64.4z M337.1,452.7c-11.1-13.5-23.1-29.5-35.5-46.8c-17.2-24-34.8-50.3-51.3-75.8
		c12-18.8,23.3-37.3,33.5-54.4c36.4,49.6,74.5,98.8,86.3,114L337.1,452.7z"/>
</g>
</svg>
