<svg id="Capa_1" data-name="Capa 1" xmlns="http://www.w3.org/2000/svg" xmlns:xlink="http://www.w3.org/1999/xlink" viewBox="0 0 237.33 60.62"><defs><style>.cls-1,.cls-14,.cls-5{fill:none;}.cls-2{fill:#fff;}.cls-3{fill:#1d1e1c;}.cls-4{fill:#fcd503;}.cls-5{stroke:#fcd503;stroke-width:0.24px;}.cls-6{fill:#21baec;}.cls-7{fill:#d92526;}.cls-8{fill:#f8c188;}.cls-9{fill:#8a723c;}.cls-10{fill:#c69c70;}.cls-11{fill:#761611;}.cls-12{fill:#bea375;}.cls-13{fill:#e32826;}.cls-14{stroke:#1d1e1c;stroke-width:1.1px;}.cls-15{clip-path:url(#clip-path);}.cls-16{fill:#267a35;}.cls-17{fill:#8bbe48;}</style><clipPath id="clip-path" transform="translate(-33.38 -33)"><path class="cls-1" d="M56.83,77.65c-.63-1.07-.81-1.06-.93-1s-.15,0-.42-.71a1.87,1.87,0,0,0,1.08,2.55,6.8,6.8,0,0,0,3.21-.08,1.54,1.54,0,0,0,.87-1.23c0-1,.36-.89.64-1.89-1.12.22-1.16,1.07-1.41,1.7a1.84,1.84,0,0,0-.48-1.79c.23,1.13-.29,1.25-.55,2.29-.09-.5.42-1.32-.6-2.34,0,1.12-.43,1.6-.43,2.72-.26-1.73-1-2.27-1-3.55a3.87,3.87,0,0,0,0,3.37"/></clipPath></defs><title>logogob</title><path class="cls-2" d="M33.38,63.31C33.38,46.57,44.54,33,58.32,33S83.26,46.57,83.26,63.31,72.09,93.62,58.32,93.62,33.38,80.05,33.38,63.31" transform="translate(-33.38 -33)"/><path class="cls-3" d="M58.32,91.8c-13,0-23.44-12.76-23.44-28.49S45.37,34.82,58.32,34.82,81.76,47.58,81.76,63.31,71.26,91.8,58.32,91.8m0-57.51c-13.19,0-23.88,13-23.88,29s10.69,29,23.88,29,23.88-13,23.88-29-10.7-29-23.88-29" transform="translate(-33.38 -33)"/><path class="cls-4" d="M58,51a3.74,3.74,0,0,0-.74,1.57,7.16,7.16,0,0,1-.1,1,.47.47,0,0,1-.06.15c0-.2-.08-.42-.14-.72a2.42,2.42,0,0,1,.18-1.05,2.1,2.1,0,0,0-.09-1.1l-1.13,1.92.55-2.12v0h0a3.92,3.92,0,0,0-1.28,1.15,4.71,4.71,0,0,1-.45.85.57.57,0,0,1-.11.11c.05-.19.09-.42.15-.72a2.39,2.39,0,0,1,.57-.9,2,2,0,0,0,.32-1L53.85,51.4l1.32-1.75,0,0h0a3.8,3.8,0,0,0-1.62.58,6.17,6.17,0,0,1-.74.6,1.07,1.07,0,0,1-.15.07c.13-.16.25-.36.42-.61a2.37,2.37,0,0,1,.87-.62,1.79,1.79,0,0,0,.69-.84l-2.14.56,1.88-1.11,0,0h0a3.89,3.89,0,0,0-1.71-.08,7.25,7.25,0,0,1-.92.28H51.6c.18-.1.36-.24.62-.41a2.42,2.42,0,0,1,1-.23,2,2,0,0,0,1-.51L52,47l2.19-.31a3.77,3.77,0,0,0-1.57-.75,5.8,5.8,0,0,1-.95-.1l-.15-.06c.21,0,.43-.07.73-.13a2.28,2.28,0,0,1,1,.18,2,2,0,0,0,1.08-.1L52.5,44.57l2.11.55h0v0a3.8,3.8,0,0,0-1.16-1.27,8.09,8.09,0,0,1-.83-.46l-.12-.11.72.15a2.39,2.39,0,0,1,.9.57,2,2,0,0,0,1.05.33l-1.34-1.78,1.75,1.32,0,0h0a3.75,3.75,0,0,0-.58-1.62,7.09,7.09,0,0,1-.6-.74,1,1,0,0,1-.07-.15c.16.12.35.24.61.41a2.26,2.26,0,0,1,.61.88,1.92,1.92,0,0,0,.85.69l-.56-2.14L57,43.07l0,0h0v0a3.65,3.65,0,0,0,.08-1.72,6.17,6.17,0,0,1-.27-.91.49.49,0,0,1,0-.17c.1.18.23.36.4.62a2.59,2.59,0,0,1,.24,1,1.9,1.9,0,0,0,.5,1l.31-2.2.31,2.2a1.89,1.89,0,0,0,.51-1,2.43,2.43,0,0,1,.24-1c.17-.26.3-.44.4-.62v.17a6.17,6.17,0,0,1-.27.91,3.93,3.93,0,0,0,.08,1.72v0h0l0,0,1.1-1.88-.56,2.14a1.92,1.92,0,0,0,.85-.69,2.26,2.26,0,0,1,.61-.88c.25-.17.45-.28.61-.41a1,1,0,0,1-.07.15,7.09,7.09,0,0,1-.6.74,3.75,3.75,0,0,0-.58,1.62h0l0,0,1.75-1.32-1.34,1.78A2,2,0,0,0,62.42,44a2.31,2.31,0,0,1,.9-.57l.72-.15-.12.11a7.23,7.23,0,0,1-.84.46,3.78,3.78,0,0,0-1.15,1.27v0h0l2.12-.55L62.16,45.7a2,2,0,0,0,1.08.1,2.28,2.28,0,0,1,1.05-.18c.3.06.52.11.72.13a.42.42,0,0,1-.14.06,5.8,5.8,0,0,1-1,.1,3.77,3.77,0,0,0-1.57.75l2.19.31-2.19.31a2,2,0,0,0,1,.51,2.39,2.39,0,0,1,1,.23c.26.17.44.31.62.41h-.16a7.25,7.25,0,0,1-.92-.28,3.88,3.88,0,0,0-1.71.08h0l0,0,1.88,1.11-2.15-.56a1.91,1.91,0,0,0,.7.84,2.49,2.49,0,0,1,.88.62,7.06,7.06,0,0,0,.41.61,1.07,1.07,0,0,1-.15-.07,6.17,6.17,0,0,1-.74-.6,3.75,3.75,0,0,0-1.62-.58h0l0,0,1.32,1.75-1.78-1.34a2,2,0,0,0,.33,1,2.39,2.39,0,0,1,.57.9c.06.3.09.53.15.72a.57.57,0,0,1-.11-.11,6.58,6.58,0,0,1-.46-.85,3.78,3.78,0,0,0-1.27-1.15h0v0l.55,2.12-1.13-1.92a2.06,2.06,0,0,0-.1,1.1A2.43,2.43,0,0,1,59.65,53c-.06.3-.12.52-.14.72a.47.47,0,0,1-.06-.15,7.16,7.16,0,0,1-.1-1A3.77,3.77,0,0,0,58.6,51Z" transform="translate(-33.38 -33)"/><path class="cls-5" d="M58,51a3.74,3.74,0,0,0-.74,1.57,7.16,7.16,0,0,1-.1,1,.47.47,0,0,1-.06.15c0-.2-.08-.42-.14-.72a2.42,2.42,0,0,1,.18-1.05,2.1,2.1,0,0,0-.09-1.1l-1.13,1.92.55-2.12v0h0a3.92,3.92,0,0,0-1.28,1.15,4.71,4.71,0,0,1-.45.85.57.57,0,0,1-.11.11c.05-.19.09-.42.15-.72a2.39,2.39,0,0,1,.57-.9,2,2,0,0,0,.32-1L53.85,51.4l1.32-1.75,0,0h0a3.8,3.8,0,0,0-1.62.58,6.17,6.17,0,0,1-.74.6,1.07,1.07,0,0,1-.15.07c.13-.16.25-.36.42-.61a2.37,2.37,0,0,1,.87-.62,1.79,1.79,0,0,0,.69-.84l-2.14.56,1.88-1.11,0,0h0a3.89,3.89,0,0,0-1.71-.08,7.25,7.25,0,0,1-.92.28H51.6c.18-.1.36-.24.62-.41a2.42,2.42,0,0,1,1-.23,2,2,0,0,0,1-.51L52,47l2.19-.31a3.77,3.77,0,0,0-1.57-.75,5.8,5.8,0,0,1-.95-.1l-.15-.06c.21,0,.43-.07.73-.13a2.28,2.28,0,0,1,1,.18,2,2,0,0,0,1.08-.1L52.5,44.57l2.11.55h0v0a3.8,3.8,0,0,0-1.16-1.27,8.09,8.09,0,0,1-.83-.46l-.12-.11.72.15a2.39,2.39,0,0,1,.9.57,2,2,0,0,0,1.05.33l-1.34-1.78,1.75,1.32,0,0h0a3.75,3.75,0,0,0-.58-1.62,7.09,7.09,0,0,1-.6-.74,1,1,0,0,1-.07-.15c.16.12.35.24.61.41a2.26,2.26,0,0,1,.61.88,1.92,1.92,0,0,0,.85.69l-.56-2.14L57,43.07l0,0h0v0a3.65,3.65,0,0,0,.08-1.72,6.17,6.17,0,0,1-.27-.91.49.49,0,0,1,0-.17c.1.18.23.36.4.62a2.59,2.59,0,0,1,.24,1,1.9,1.9,0,0,0,.5,1l.31-2.2.31,2.2a1.89,1.89,0,0,0,.51-1,2.43,2.43,0,0,1,.24-1c.17-.26.3-.44.4-.62v.17a6.17,6.17,0,0,1-.27.91,3.93,3.93,0,0,0,.08,1.72v0h0l0,0,1.1-1.88-.56,2.14a1.92,1.92,0,0,0,.85-.69,2.26,2.26,0,0,1,.61-.88c.25-.17.45-.28.61-.41a1,1,0,0,1-.07.15,7.09,7.09,0,0,1-.6.74,3.75,3.75,0,0,0-.58,1.62h0l0,0,1.75-1.32-1.34,1.78A2,2,0,0,0,62.42,44a2.31,2.31,0,0,1,.9-.57l.72-.15-.12.11a7.23,7.23,0,0,1-.84.46,3.78,3.78,0,0,0-1.15,1.27v0h0l2.12-.55L62.16,45.7a2,2,0,0,0,1.08.1,2.28,2.28,0,0,1,1.05-.18c.3.06.52.11.72.13a.42.42,0,0,1-.14.06,5.8,5.8,0,0,1-1,.1,3.77,3.77,0,0,0-1.57.75l2.19.31-2.19.31a2,2,0,0,0,1,.51,2.39,2.39,0,0,1,1,.23c.26.17.44.31.62.41h-.16a7.25,7.25,0,0,1-.92-.28,3.88,3.88,0,0,0-1.71.08h0l0,0,1.88,1.11-2.15-.56a1.91,1.91,0,0,0,.7.84,2.49,2.49,0,0,1,.88.62,7.06,7.06,0,0,0,.41.61,1.07,1.07,0,0,1-.15-.07,6.17,6.17,0,0,1-.74-.6,3.75,3.75,0,0,0-1.62-.58h0l0,0,1.32,1.75-1.78-1.34a2,2,0,0,0,.33,1,2.39,2.39,0,0,1,.57.9c.06.3.09.53.15.72a.57.57,0,0,1-.11-.11,6.58,6.58,0,0,1-.46-.85,3.78,3.78,0,0,0-1.27-1.15h0v0l.55,2.12-1.13-1.92a2.06,2.06,0,0,0-.1,1.1A2.43,2.43,0,0,1,59.65,53c-.06.3-.12.52-.14.72a.47.47,0,0,1-.06-.15,7.16,7.16,0,0,1-.1-1A3.77,3.77,0,0,0,58.6,51Z" transform="translate(-33.38 -33)"/><path class="cls-3" d="M54,49.65a1.91,1.91,0,0,0,.7-.84l-2.15.56,1.88-1.11,0,0h0a3.89,3.89,0,0,0-1.71-.08,7.25,7.25,0,0,1-.92.28H51.6c.18-.1.36-.24.62-.41a2.42,2.42,0,0,1,1-.23,2,2,0,0,0,1-.51L52,47l2.19-.31a3.77,3.77,0,0,0-1.57-.75,5.8,5.8,0,0,1-.95-.1l-.15-.06c.21,0,.43-.07.73-.13a2.28,2.28,0,0,1,1,.18,2,2,0,0,0,1.08-.1l-1.9-1.13,2.1.55h0v0a3.8,3.8,0,0,0-1.16-1.27,8.09,8.09,0,0,1-.83-.46l-.12-.11.72.15a2.39,2.39,0,0,1,.9.57,2,2,0,0,0,1.05.33l-1.34-1.78,1.75,1.32,0,0h0v0a3.75,3.75,0,0,0-.58-1.62,8.62,8.62,0,0,1-.61-.74l-.06-.15c.16.12.35.24.61.41a2.26,2.26,0,0,1,.61.88,1.92,1.92,0,0,0,.85.69l-.56-2.14L57,43.07l0,0h0v0a3.65,3.65,0,0,0,.08-1.72,6.17,6.17,0,0,1-.27-.91.49.49,0,0,1,0-.17c.1.18.23.36.4.62a2.62,2.62,0,0,1,.24,1,1.9,1.9,0,0,0,.5,1l.31-2.2.31,2.2a1.89,1.89,0,0,0,.51-1,2.46,2.46,0,0,1,.24-1c.17-.26.3-.44.4-.62v.17a6.17,6.17,0,0,1-.27.91,3.93,3.93,0,0,0,.08,1.72v0h0l0,0,1.1-1.88-.56,2.14a1.92,1.92,0,0,0,.85-.69,2.26,2.26,0,0,1,.61-.88c.25-.17.45-.28.61-.41a1,1,0,0,1-.07.15,7.09,7.09,0,0,1-.6.74,3.75,3.75,0,0,0-.58,1.62v0h0l0,0,1.75-1.32-1.34,1.78A2,2,0,0,0,62.42,44a2.31,2.31,0,0,1,.9-.57l.72-.15-.12.11a7.23,7.23,0,0,1-.84.46,3.78,3.78,0,0,0-1.15,1.27v0h0l2.11-.55L62.16,45.7a2,2,0,0,0,1.08.1,2.28,2.28,0,0,1,1.05-.18c.3.06.52.11.72.13a.42.42,0,0,1-.14.06,5.8,5.8,0,0,1-1,.1,3.77,3.77,0,0,0-1.57.75l2.19.31-2.19.31a2,2,0,0,0,1,.51,2.39,2.39,0,0,1,1,.23c.26.17.44.31.62.41h-.16a7.25,7.25,0,0,1-.92-.28,3.88,3.88,0,0,0-1.71.08h0l0,0,1.88,1.11-2.15-.56a1.91,1.91,0,0,0,.7.84,2.49,2.49,0,0,1,.88.62l.12-.16a2.45,2.45,0,0,0-.87-.62,1.11,1.11,0,0,1-.4-.36l2.34.6.68.18h0l-.6-.36-2.06-1.22a3.46,3.46,0,0,1,1.22,0,5.51,5.51,0,0,0,.91.27,1.27,1.27,0,0,0,.53-.07c.24-.07.46-.16.46-.16a1.85,1.85,0,0,1-.5-.06,3.12,3.12,0,0,1-.92-.53,2.29,2.29,0,0,0-1-.22,1.47,1.47,0,0,1-.51-.19l2.39-.34L66,47l-.71-.1-2.36-.33A3.49,3.49,0,0,1,64,46.1a5.69,5.69,0,0,0,1-.1,1.23,1.23,0,0,0,.46-.27,3.17,3.17,0,0,0,.36-.32,1.7,1.7,0,0,1-.48.14,3.4,3.4,0,0,1-1-.14,2.43,2.43,0,0,0-1,.19,1.26,1.26,0,0,1-.54,0l2.08-1.23.61-.36-.69.17-2.3.6a3.41,3.41,0,0,1,.89-.83,5.92,5.92,0,0,0,.83-.46,1.52,1.52,0,0,0,.33-.43c.12-.22.21-.43.21-.43a1.73,1.73,0,0,1-.4.31,3.15,3.15,0,0,1-1,.28,2.39,2.39,0,0,0-.9.57,1.11,1.11,0,0,1-.49.23l1.45-1.93.43-.57h0l-.57.43-1.9,1.44a3.43,3.43,0,0,1,.5-1.12,6.17,6.17,0,0,0,.6-.74,1.79,1.79,0,0,0,.14-.52c0-.25,0-.48,0-.48a1.57,1.57,0,0,1-.24.43,3.26,3.26,0,0,1-.84.65,2.46,2.46,0,0,0-.61.88,1.33,1.33,0,0,1-.37.4l.6-2.34.18-.69-.36.61-1.21,2.06a3.44,3.44,0,0,1,0-1.22,6,6,0,0,0,.27-.92,1.46,1.46,0,0,0-.07-.53,4.15,4.15,0,0,0-.16-.46,1.8,1.8,0,0,1-.06.5,3.36,3.36,0,0,1-.53.92,2.45,2.45,0,0,0-.23,1,1.24,1.24,0,0,1-.19.51h0L58.38,40l-.1-.71h0l-.1.71-.33,2.39a1.11,1.11,0,0,1-.19-.51,2.32,2.32,0,0,0-.24-1,3.29,3.29,0,0,1-.52-.92,1.8,1.8,0,0,1-.06-.5,4.15,4.15,0,0,0-.16.46,1.46,1.46,0,0,0-.07.53,6,6,0,0,0,.27.92,3.24,3.24,0,0,1,0,1.22l-1.2-2.06-.36-.61.18.69.6,2.34a1.33,1.33,0,0,1-.37-.4,2.46,2.46,0,0,0-.61-.88,3.45,3.45,0,0,1-.84-.65,1.57,1.57,0,0,1-.24-.43,3.33,3.33,0,0,0,0,.48,1.79,1.79,0,0,0,.14.52,6.17,6.17,0,0,0,.6.74,3.43,3.43,0,0,1,.5,1.12L53.43,42l-.57-.43h0l.43.57L54.74,44a1.11,1.11,0,0,1-.49-.23,2.39,2.39,0,0,0-.9-.57,3.15,3.15,0,0,1-1-.28,1.73,1.73,0,0,1-.4-.31s.09.21.21.43a1.52,1.52,0,0,0,.33.43,6.54,6.54,0,0,0,.83.46,3.41,3.41,0,0,1,.89.83l-2.3-.6L51.2,44l.61.36,2.08,1.23a1.26,1.26,0,0,1-.54,0,2.43,2.43,0,0,0-1.05-.19,3.43,3.43,0,0,1-1.06.14,1.74,1.74,0,0,1-.47-.14,2.38,2.38,0,0,0,.36.32,1.31,1.31,0,0,0,.46.27,5.69,5.69,0,0,0,.95.1,3.49,3.49,0,0,1,1.14.44l-2.36.33-.71.1.71.1,2.39.34a1.4,1.4,0,0,1-.51.19,2.27,2.27,0,0,0-1,.22,3.24,3.24,0,0,1-.92.53,1.8,1.8,0,0,1-.5.06,4.15,4.15,0,0,0,.46.16,1.27,1.27,0,0,0,.53.07,5.82,5.82,0,0,0,.91-.27,3.46,3.46,0,0,1,1.22,0l-2,1.22-.61.36h0l.69-.18,2.33-.6a1.11,1.11,0,0,1-.4.36Z" transform="translate(-33.38 -33)"/><path class="cls-3" d="M58.77,45.67l.06-.52a7.37,7.37,0,0,1,1.34,0,2.08,2.08,0,0,1,.87.7c.05.16-.37-.2-.68-.29a3.35,3.35,0,0,0-1.59.11" transform="translate(-33.38 -33)"/><path class="cls-3" d="M60.19,46a3.52,3.52,0,0,0-1,0,1.5,1.5,0,0,0-.46.51s.16.13.26,0a.58.58,0,0,1,.31-.18.4.4,0,0,0,.4.53.41.41,0,0,0,.41-.42.25.25,0,0,0,0-.12,1,1,0,0,1,.41.19c.16.12.3.22.3.12a1.77,1.77,0,0,0-.64-.57" transform="translate(-33.38 -33)"/><path class="cls-3" d="M57.72,45.66l-.06-.51a7.2,7.2,0,0,0-1.34,0,2.23,2.23,0,0,0-.87.7c-.05.16.37-.2.68-.29a3.35,3.35,0,0,1,1.59.11" transform="translate(-33.38 -33)"/><path class="cls-3" d="M56.31,46a3.1,3.1,0,0,1,1,0,1.65,1.65,0,0,1,.47.51s-.16.13-.27,0a.51.51,0,0,0-.31-.18.43.43,0,0,1,0,.11.42.42,0,0,1-.84,0,.53.53,0,0,1,0-.12,1.11,1.11,0,0,0-.41.19c-.15.12-.3.22-.3.12a1.81,1.81,0,0,1,.65-.57" transform="translate(-33.38 -33)"/><path class="cls-2" d="M46.72,63.31c0,8.57,5.2,15.52,11.62,15.52S70,71.88,70,63.31V63.1H46.72v.21" transform="translate(-33.38 -33)"/><path class="cls-6" d="M58.34,47.79c-6.41,0-11.59,6.91-11.62,15.32H70c0-8.41-5.21-15.32-11.61-15.32" transform="translate(-33.38 -33)"/><path class="cls-7" d="M61.54,59.31a23.38,23.38,0,0,0-.21-2.4c-.15-.57.15-2.2.06-2.54s-.67-2.4-2.61-2.48-2.36,1-2.36,1.35,1,.79,1.37.78a5.38,5.38,0,0,0-3.41,4.22c-.17.78,2.68,1.43,3.21,1.53s4,.6,3.95-.46" transform="translate(-33.38 -33)"/><path class="cls-8" d="M46.88,66.28s5.52-.45,6.26-.7c.47-.15,1.86-.66,2.33-.81a10.92,10.92,0,0,1,2-.18c.17,0,.41.34.41.34l.82-.78,1.29,0c.3,0,2,1,2.51,1.12,0,0,2.46.43,2.92.59s4,1,4.18,1-1.06,3.87-1.18,4.06A50.89,50.89,0,0,1,62.27,68c-.18-.17-.13.74-.88.74,0,0-.54.6-1.1.46a1.85,1.85,0,0,1-1,.48s.12.49-1.34.16c-.1,0-1,1-1.63,0,0,0-.89.5-1.1-.33,0,0-.66.41-.75-.63a.82.82,0,0,1-1-.44,56.66,56.66,0,0,0-5.58,2,24.51,24.51,0,0,1-1.09-4.14" transform="translate(-33.38 -33)"/><path class="cls-9" d="M54,69.75c-.54-.28-3.36.25-5,3a12.67,12.67,0,0,0,.76,1.23,13,13,0,0,0,1.18-2c.9-2,3.15-2.06,3-2.19" transform="translate(-33.38 -33)"/><path class="cls-9" d="M53,76.35c-.58-2.08,1.1-3.59.9-3.62-.46.12-1.68,1.5-1.94,3.6a11,11,0,0,0,1.24,1,9,9,0,0,0-.2-.93" transform="translate(-33.38 -33)"/><path class="cls-9" d="M51.34,75.8a9.12,9.12,0,0,0,.24-1.54c.18-2.16,2.27-3,2.1-3.09-.53-.06-2.52,1.07-3.38,3.45a14.85,14.85,0,0,0,1,1.18" transform="translate(-33.38 -33)"/><path class="cls-9" d="M62.79,71.57c-.17.08,1.91.94,2.09,3.09A9.8,9.8,0,0,0,65.07,76a10.83,10.83,0,0,0,1-1.11c-.89-2.26-2.79-3.33-3.3-3.27" transform="translate(-33.38 -33)"/><path class="cls-9" d="M55,77.85c-1.25-1.77-.2-3.77-.38-3.71-.37.23-1,1.73-.69,3.57a9.28,9.28,0,0,0,1.4.64c-.11-.18-.22-.34-.33-.5" transform="translate(-33.38 -33)"/><path class="cls-9" d="M62.61,73.14c-.2,0,1.48,1.53.9,3.62,0,.17-.09.35-.13.54a10,10,0,0,0,1.13-.84c-.33-1.95-1.46-3.22-1.9-3.32" transform="translate(-33.38 -33)"/><path class="cls-9" d="M61.9,74.54c-.19-.05.87,1.94-.38,3.71,0,0,0,0,0,0a9.6,9.6,0,0,0,1.13-.52,4.24,4.24,0,0,0-.73-3.21" transform="translate(-33.38 -33)"/><path class="cls-10" d="M62.8,67.07c-.29-.16-.23-.11-.45-.42-.18.39-.36.3-.36.29s-1.72-.67-1.94-2.12c0,0-.38,1.15-.92-.12,0,0-.67,1.32-1.37,1.2s-.79,0-.79,0l.35.19-.39.06a1.71,1.71,0,0,0,1.48.65c.85-.14.92-.38,1-.44a8.45,8.45,0,0,1,1.73,1.32c0,.07-.19.16-.41.16a10,10,0,0,1-1.26-.71l1.94,1.63.84-.46,0-.4a42.41,42.41,0,0,0,5.88,3A5,5,0,0,0,69,69a19.47,19.47,0,0,1-6.22-1.92" transform="translate(-33.38 -33)"/><path class="cls-10" d="M58.66,67.6s1.17,1,1.48,1,.42-.48.32-.6.65.81.65.81l-.56.31L60,69Z" transform="translate(-33.38 -33)"/><path class="cls-10" d="M58.16,68.46l1,1s.19.31.74,0,.28-.49.18-.51-.24-.29-.24-.29-.46.48-.73.34-.94-.57-.94-.57" transform="translate(-33.38 -33)"/><path class="cls-10" d="M47.41,68.46s6-1,7-1.21a4.8,4.8,0,0,1,2.38.59,8.13,8.13,0,0,0,1.31.55l1.4,1-.23.47s-.58.05-1,.05-.89.36-1.33.36a.67.67,0,0,1-.59-.46.7.7,0,0,1-1.1-.33s-.75.31-.75-.63c0,0-.9.23-.9-.48,0,0-5,1.63-5.64,2.06a12.37,12.37,0,0,1-.56-2" transform="translate(-33.38 -33)"/><path class="cls-8" d="M57.39,68.69s-.38.36-.6.36-.63-.11-.38-.42.69-.34.81-.21.17,0,.17.27" transform="translate(-33.38 -33)"/><path class="cls-8" d="M56.28,68.19s-.4.36-.6.36-.63-.11-.38-.42.69-.34.82-.21.16,0,.16.27" transform="translate(-33.38 -33)"/><path class="cls-11" d="M61.43,59.48c-.08.47-1.71.6-3.66.3s-3.47-.94-3.39-1.4,1.7-.6,3.66-.3,3.46.94,3.39,1.4" transform="translate(-33.38 -33)"/><polygon class="cls-9" points="25.38 25.35 24.41 25.17 24.41 31.59 25.38 31.14 25.38 25.35"/><polygon class="cls-12" points="24.7 31.36 24.97 31.36 24.97 26.13 24.7 26.05 24.7 31.36"/><polygon class="cls-9" points="27.31 39.47 25.72 39.47 25.72 37.87 24.13 37.87 24.13 39.47 22.52 39.47 22.52 41.06 24.13 41.06 24.13 45.41 25.72 45.41 25.72 41.06 27.31 41.06 27.31 39.47"/><rect class="cls-12" x="24.13" y="38.03" width="1.59" height="0.13"/><polygon class="cls-12" points="25.57 39.62 25.69 39.75 27.16 39.75 27.16 39.62 25.57 39.62"/><rect class="cls-12" x="22.62" y="39.62" width="1.76" height="0.13"/><rect class="cls-12" x="24.28" y="38.06" width="0.13" height="1.69"/><polygon class="cls-12" points="24.28 44.02 24.4 44.02 24.4 41.04 24.28 40.91 24.28 44.02"/><path class="cls-13" d="M59.44,55.39a1,1,0,0,0-.24,0l.24,0" transform="translate(-33.38 -33)"/><path class="cls-3" d="M59.44,55.39a1,1,0,0,0-.24,0l.24,0" transform="translate(-33.38 -33)"/><path class="cls-3" d="M58.75,60c1.62.15,2.85,0,2.92-.47C62,57.37,61.54,57,61.54,57a2.56,2.56,0,0,0,0-1.6,3,3,0,0,0-2.47-3.56c-1.91-.32-2.76.82-2.83,1.25-.14.87.64,1,1.09,1a5.18,5.18,0,0,0-3.19,4.3c-.09.52,1.53,1.23,3.61,1.57l.07-.21c-1.85-.3-3.29-.87-3.22-1.28s1.62-.5,3.46-.19,3.29.87,3.22,1.28-1.1.45-2.5.32ZM54.65,58a5,5,0,0,1,4-3.91s-2-.18-2-.78S57.69,51.9,59,52.12c.71.12,2.31,1,2,2.56-.07.44-1.14.64-1.63.71.89,0,1.57.06,1.52.37s-.88.79-1.74.62c1.19.64,1.26-.25,1.85.57.21.28,0,.4-1.27,0-2-.61-2.6-.32-2.6-.32a7.44,7.44,0,0,1,3.63,1.24c.33.24.39,1,.19,1a10.18,10.18,0,0,0-3-.88,8.82,8.82,0,0,0-3.41,0" transform="translate(-33.38 -33)"/><polygon class="cls-14" points="25.38 25.35 24.41 25.17 24.41 31.59 25.38 31.14 25.38 25.35"/><path class="cls-3" d="M68.55,70.63s-5.25-2-6.07-2.75L62,67.5a15.22,15.22,0,0,0-2.25-1.73,3.14,3.14,0,0,1-.56-.84c.21.79-.46.72-.85,1.11s-.94,0-1.08-.12.58-.54,1.21-1.31c.14-.18.17-.44.88-.33s1,.07,1.27.28a10,10,0,0,0,2.12,1,8.3,8.3,0,0,1,2.5.43,43.86,43.86,0,0,0,4.31,1.07,19,19,0,0,1-1,3.57m-7-2.11a20.89,20.89,0,0,1-2.14-1.43c.07.08.39.39.39.39.48.49,1.14,1.1,1.19,1.22s-.36.31-.55.31A9.57,9.57,0,0,1,59,68c.25.35,1.18,1.15,1.08,1.37s-.32.18-.51.18a5.83,5.83,0,0,1-1.07-.7,3.58,3.58,0,0,1,.53.81c.06.22-.39.14-.55.13a.31.31,0,0,1-.12,0,.55.55,0,0,0,.11-.36c0-.19-.21-.5-.85-.5,0,0,.21-.9-1-.65-.31-.42-.54-.6-1.43-.25A.77.77,0,0,0,54,67.77a1.33,1.33,0,0,0-.39.42c-1.35.28-5.74,2-5.74,2a21.05,21.05,0,0,1-.94-3.67,57.46,57.46,0,0,0,6.59-.78c.46-.14,1.69-.66,2.17-.83a6.47,6.47,0,0,1,1.79-.13l.24.17c-.44.45-.91.88-.91,1s.26.37.89.47c1.07.17,1.16-.56,1.54-.56a1.25,1.25,0,0,0,.31.13l.17.1.34.25c.57.43,1.43,1.14,1.8,1.5s-.13.65-.31.65M57,70.18c-.17,0-.51-.22-.39-.35a4.68,4.68,0,0,0,.93-.68c.19,0,.87.21.48.5a2.51,2.51,0,0,1-1,.53m-1.33-.4c-.29-.14,0-.54.45-.91s.71-.67,1.23-.28c.13.18-.29.56-.6.79s-.88.5-1.08.4m-.87-.44a.73.73,0,0,1,.16-.9c.11-.1.73-.67,1.17-.37.22.14-.14.49-.45.8s-.79.57-.88.47m-.89-.68c-.19-.08-.13-.46.16-.68s.53-.28.65-.17a.4.4,0,0,1-.05.52c-.18.18-.46.47-.76.33m15.74-2a32.33,32.33,0,0,1-4.54-1.08,16.45,16.45,0,0,0-2.43-.41c-1-.31-2.12-1.23-2.49-1.15s-1.58-.23-1.78.09a3.42,3.42,0,0,1-.39.47.82.82,0,0,0-.61-.22H55.7c-.4,0-1.94.89-2.46,1a43.28,43.28,0,0,1-6.4.58A20.7,20.7,0,0,0,48,70.63a31.34,31.34,0,0,1,5.49-2,.4.4,0,0,0,.07.13.89.89,0,0,0,.79.3.63.63,0,0,0,.82.7c0,.23.51.68,1.19.31.08.34.57.66,1.32.21L58,70l0,0c.36.19,1.32.42,1.57-.16a.68.68,0,0,0,.81-.47s.78.2,1-.48c0,0,.92.09,1-.66a57.77,57.77,0,0,0,6,2.81c.51-1.56.67-2.15,1.17-3.86.07-.23.14-.52.1-.52" transform="translate(-33.38 -33)"/><path class="cls-3" d="M53.87,71.1c-.43-.21-2.73.66-3.76,3.27l.19.26c.86-2.39,2.85-3.52,3.38-3.46.17.08-1.92.93-2.1,3.09a9.12,9.12,0,0,1-.24,1.54l.22.21a8.82,8.82,0,0,0,.2-1.38c.18-2.81,2.46-3.37,2.11-3.53" transform="translate(-33.38 -33)"/><path class="cls-3" d="M54,72.6c-.42,0-2,1.24-2.33,3.52l.23.21c.26-2.1,1.48-3.48,1.94-3.6.2,0-1.48,1.54-.9,3.62a9,9,0,0,1,.2.93l.28.18a6.12,6.12,0,0,0-.2-.82c-.78-2.7,1.17-4,.78-4" transform="translate(-33.38 -33)"/><path class="cls-3" d="M54.66,74c-.37.1-1.26,1.58-1.06,3.61a2.49,2.49,0,0,0,.28.15c-.28-1.84.32-3.34.69-3.57.18-.06-.87,1.94.38,3.71l.33.5.34.11a4.37,4.37,0,0,0-.31-.44c-1.65-2.27-.27-4.17-.65-4.07" transform="translate(-33.38 -33)"/><path class="cls-3" d="M64.88,74.66c-.18-2.15-2.26-3-2.09-3.09.51-.06,2.41,1,3.3,3.27l.2-.24c-1.07-2.48-3.28-3.31-3.7-3.11s1.94.73,2.12,3.54a8.51,8.51,0,0,0,.14,1.13l.22-.21a9.8,9.8,0,0,1-.19-1.29" transform="translate(-33.38 -33)"/><path class="cls-3" d="M62.45,73c-.39,0,1.56,1.34.78,4l-.12.43.27-.17c0-.19.09-.37.13-.54.58-2.09-1.1-3.61-.9-3.62.44.1,1.57,1.37,1.9,3.32l.23-.2C64.29,74.14,62.86,73,62.45,73" transform="translate(-33.38 -33)"/><path class="cls-3" d="M61.8,74.35c-.37-.1,1,1.78-.63,4l.33-.12s0,0,0,0c1.25-1.77.19-3.76.38-3.71a4.24,4.24,0,0,1,.73,3.21l.26-.15c.07-1.83-.73-3.15-1.09-3.25" transform="translate(-33.38 -33)"/><path class="cls-3" d="M54.19,69.74c-.38-.38-3.45-.29-5.33,2.69,0,.09.1.18.16.27,1.59-2.53,3.8-3,4.56-2.9A4.19,4.19,0,0,0,51,71.94a13,13,0,0,1-1.18,2l.17.22a9.61,9.61,0,0,0,1-1.81c1.14-2.57,3.47-2.32,3.2-2.6" transform="translate(-33.38 -33)"/><path class="cls-3" d="M58.94,71v1.6h1.59v1.29H58.94v4.35H57.66V73.91H56.05V72.62h1.61V71Zm-1.59-.3v1.59h-1.6v1.91h1.6v4.35h1.9V74.22h1.59V72.31H59.25V70.72Z" transform="translate(-33.38 -33)"/><path class="cls-3" d="M59.2,74.82c.38.37,1,.52.84,1.31.21-.56.31-.88,1.54-1.13-.41,1.3-.7,1-.7,2.1a1.88,1.88,0,0,1-.94,1.48,6.7,6.7,0,0,1-3.48.1c-1.34-.43-1.89-2.44-.93-3.21.55,1.58.14.53.78,1.13A2.44,2.44,0,0,1,57,74c0,1.53.38,1.33.8,2.82,0-.67.47-.57.31-2.25A2.61,2.61,0,0,1,59,76.64c.28-1.26.46-.82.21-1.82" transform="translate(-33.38 -33)"/><path class="cls-13" d="M59.39,75.16A1.81,1.81,0,0,1,59.87,77c.25-.63.29-1.49,1.41-1.7-.28,1-.64.92-.64,1.89a1.54,1.54,0,0,1-.87,1.23,6.84,6.84,0,0,1-3.22.08,1.87,1.87,0,0,1-1.07-2.55c.57,1.56.16-.27,1.35,1.75a3.87,3.87,0,0,1,0-3.37c0,1.28.74,1.82,1,3.55,0-1.12.43-1.6.43-2.72,1,1,.51,1.84.6,2.34.26-1,.78-1.16.55-2.29" transform="translate(-33.38 -33)"/><g class="cls-15"><path class="cls-4" d="M57.69,79s-2-.31-1.87-1.69c0,0,.54.8,1.14.74.12,0-.14-.67-.05-1.18a2.19,2.19,0,0,0,.88,1.4,1.5,1.5,0,0,0,.73-1.61,2.5,2.5,0,0,1,.22.79,4.34,4.34,0,0,1,0,.48s.2.08.52-.47l.38-.66a1.52,1.52,0,0,1,.17.79s.31-.78.71-1c-.26.41,0,1.9-1.59,2.37-.35.12-.39.17-1.25,0" transform="translate(-33.38 -33)"/></g><path class="cls-3" d="M46.92,63.35c0-8.42,5.1-15.27,11.36-15.27s11.37,6.85,11.37,15.27-5.1,15.27-11.37,15.27S46.92,71.77,46.92,63.35m-.51,0c0,8.7,5.33,15.78,11.87,15.78s11.87-7.08,11.87-15.78S64.83,47.57,58.28,47.57,46.41,54.65,46.41,63.35" transform="translate(-33.38 -33)"/><path class="cls-16" d="M52.49,49.76c-.27-.17-1,.1-1.5.33a2.12,2.12,0,0,0-.13-1.87s-.74.78-.6,1.26.33,1,.12,1.25a3.29,3.29,0,0,1,1-.16,1.6,1.6,0,0,0,1.14-.81" transform="translate(-33.38 -33)"/><path class="cls-17" d="M50.85,48.37a2.41,2.41,0,0,1,.25,1.47c-.15.71-.32-.61-.26-.88a3,3,0,0,0,0-.59" transform="translate(-33.38 -33)"/><path class="cls-17" d="M52.56,49.68s-.53,1-1.24.8,1.24-.8,1.24-.8" transform="translate(-33.38 -33)"/><path class="cls-3" d="M51.35,50.57a3.4,3.4,0,0,0-1,.16c.22-.25,0-.77-.1-1.25s.59-1.26.59-1.26A2.12,2.12,0,0,1,51,50.09c.54-.23,1.23-.5,1.5-.33a1.6,1.6,0,0,1-1.14.81m1.54-1a1.83,1.83,0,0,0-1-.09,3.09,3.09,0,0,0-.63.28c.45-.75-.37-2-.47-2a5.19,5.19,0,0,0-.61.81,1.42,1.42,0,0,0,0,1.43c.24.57-.4,1.33-.4,1.33.5-.46.62-.44,1.5-.51s1.64-1.26,1.64-1.26" transform="translate(-33.38 -33)"/><path class="cls-16" d="M51,51c-.28-.18-1,.1-1.51.32a2.1,2.1,0,0,0-.13-1.86s-.74.77-.59,1.25.32,1,.11,1.26a3.3,3.3,0,0,1,1-.16A1.64,1.64,0,0,0,51,51" transform="translate(-33.38 -33)"/><path class="cls-17" d="M49.36,49.56A2.46,2.46,0,0,1,49.62,51c-.16.72-.33-.61-.27-.87a2.44,2.44,0,0,0,0-.6" transform="translate(-33.38 -33)"/><path class="cls-17" d="M51.07,50.88s-.52.95-1.24.79,1.24-.79,1.24-.79" transform="translate(-33.38 -33)"/><path class="cls-3" d="M49.87,51.77a3.3,3.3,0,0,0-1,.16c.21-.25,0-.78-.11-1.26s.59-1.25.59-1.25a2.1,2.1,0,0,1,.13,1.86c.55-.22,1.23-.5,1.51-.32a1.64,1.64,0,0,1-1.14.81m1.54-1a1.85,1.85,0,0,0-1-.09,4.21,4.21,0,0,0-.63.28c.45-.75-.36-2-.47-2a5.65,5.65,0,0,0-.6.8,1.39,1.39,0,0,0,0,1.43c.24.57-.39,1.33-.39,1.33.49-.46.62-.44,1.49-.51s1.65-1.26,1.65-1.26" transform="translate(-33.38 -33)"/><path class="cls-16" d="M49.94,52.24c-.29-.16-.95.17-1.47.44a2.14,2.14,0,0,0-.28-1.86s-.68.84-.49,1.3.4,1,.21,1.25a3.29,3.29,0,0,1,1-.24,1.57,1.57,0,0,0,1.08-.89" transform="translate(-33.38 -33)"/><path class="cls-17" d="M48.19,51a2.44,2.44,0,0,1,.37,1.45c-.09.72-.37-.58-.33-.85a3.69,3.69,0,0,0,0-.6" transform="translate(-33.38 -33)"/><path class="cls-17" d="M50,52.16s-.45,1-1.18.88S50,52.16,50,52.16" transform="translate(-33.38 -33)"/><path class="cls-3" d="M48.86,53.13a3.29,3.29,0,0,0-1,.24c.19-.27,0-.78-.21-1.25s.49-1.3.49-1.3a2.14,2.14,0,0,1,.28,1.86c.52-.27,1.18-.6,1.47-.44a1.57,1.57,0,0,1-1.08.89m1.47-1.07a1.94,1.94,0,0,0-1,0,3.84,3.84,0,0,0-.61.33c.39-.78-.52-2-.63-1.94a6.51,6.51,0,0,0-.53.85,1.39,1.39,0,0,0,.09,1.42c.29.55-.28,1.36-.28,1.36.45-.5.58-.49,1.45-.63s1.54-1.38,1.54-1.38" transform="translate(-33.38 -33)"/><path class="cls-16" d="M49.07,53.57c-.31-.11-.92.3-1.41.63a2.12,2.12,0,0,0-.51-1.8s-.57.91-.32,1.35.52.92.36,1.21a3.57,3.57,0,0,1,.92-.36,1.59,1.59,0,0,0,1-1" transform="translate(-33.38 -33)"/><path class="cls-17" d="M47.17,52.55a2.39,2.39,0,0,1,.55,1.38c0,.73-.44-.52-.43-.79a3.21,3.21,0,0,0-.12-.59" transform="translate(-33.38 -33)"/><path class="cls-17" d="M49.12,53.49s-.33,1-1.06,1,1.06-1,1.06-1" transform="translate(-33.38 -33)"/><path class="cls-3" d="M48.11,54.6a3.57,3.57,0,0,0-.92.36c.16-.29-.12-.77-.36-1.21s.32-1.35.32-1.35a2.13,2.13,0,0,1,.51,1.8c.49-.33,1.1-.74,1.41-.63a1.59,1.59,0,0,1-1,1m1.32-1.25a1.87,1.87,0,0,0-1,.12,5.64,5.64,0,0,0-.57.4c.29-.82-.76-1.87-.86-1.84a5.54,5.54,0,0,0-.43.92,1.4,1.4,0,0,0,.28,1.4c.36.5-.11,1.38-.11,1.38.39-.55.52-.56,1.36-.81s1.35-1.57,1.35-1.57" transform="translate(-33.38 -33)"/><path class="cls-16" d="M48.32,55c-.33-.08-.9.42-1.36.82a2.18,2.18,0,0,0-.74-1.77s-.46,1-.17,1.41.65.88.53,1.19a3.45,3.45,0,0,1,.89-.48A1.67,1.67,0,0,0,48.32,55" transform="translate(-33.38 -33)"/><path class="cls-17" d="M46.26,54.19A2.56,2.56,0,0,1,47,55.54c.09.74-.51-.48-.54-.77a3.51,3.51,0,0,0-.19-.58" transform="translate(-33.38 -33)"/><path class="cls-17" d="M48.36,54.91s-.21,1.1-1,1.18,1-1.18,1-1.18" transform="translate(-33.38 -33)"/><path class="cls-3" d="M47.47,56.17a3.45,3.45,0,0,0-.89.48c.12-.31-.23-.77-.53-1.19s.17-1.41.17-1.41A2.18,2.18,0,0,1,47,55.82c.46-.4,1-.89,1.36-.82a1.65,1.65,0,0,1-.85,1.17m1.19-1.44a2,2,0,0,0-1,.25,5.4,5.4,0,0,0-.52.48c.19-.87-1-1.81-1.11-1.77a6.33,6.33,0,0,0-.32,1,1.4,1.4,0,0,0,.46,1.39c.42.48,0,1.43,0,1.43.33-.62.46-.64,1.28-1s1.19-1.77,1.19-1.77" transform="translate(-33.38 -33)"/><path class="cls-16" d="M47.65,56.61c-.34,0-.84.53-1.24,1a2.21,2.21,0,0,0-1-1.67s-.33,1.05,0,1.43.76.78.68,1.11a3.28,3.28,0,0,1,.82-.6,1.64,1.64,0,0,0,.69-1.27" transform="translate(-33.38 -33)"/><path class="cls-17" d="M45.5,56.08a2.51,2.51,0,0,1,.9,1.24c.19.73-.57-.41-.64-.68a3.45,3.45,0,0,0-.26-.56" transform="translate(-33.38 -33)"/><path class="cls-17" d="M47.68,56.52s-.06,1.11-.79,1.29.79-1.29.79-1.29" transform="translate(-33.38 -33)"/><path class="cls-3" d="M47,57.88a3.28,3.28,0,0,0-.82.6c.08-.33-.32-.74-.68-1.11s0-1.43,0-1.43a2.18,2.18,0,0,1,1,1.67c.4-.46.9-1,1.24-1A1.64,1.64,0,0,1,47,57.88m1-1.58a1.91,1.91,0,0,0-1,.39,3.49,3.49,0,0,0-.46.54c.07-.89-1.24-1.67-1.33-1.61a5.62,5.62,0,0,0-.19,1A1.41,1.41,0,0,0,45.62,58c.48.41.24,1.41.24,1.41.25-.66.38-.7,1.15-1.16S48,56.3,48,56.3" transform="translate(-33.38 -33)"/><path class="cls-16" d="M47.11,58.25c-.34,0-.77.66-1.11,1.18a2.22,2.22,0,0,0-1.21-1.54S44.61,59,45,59.33s.87.67.83,1a3.29,3.29,0,0,1,.75-.72,1.7,1.7,0,0,0,.51-1.38" transform="translate(-33.38 -33)"/><path class="cls-17" d="M44.87,58A2.57,2.57,0,0,1,46,59.14c.29.71-.63-.33-.73-.59a3.65,3.65,0,0,0-.35-.53" transform="translate(-33.38 -33)"/><path class="cls-17" d="M47.12,58.15s.1,1.14-.61,1.42.61-1.42.61-1.42" transform="translate(-33.38 -33)"/><path class="cls-3" d="M46.6,59.63a3.29,3.29,0,0,0-.75.72c0-.35-.43-.7-.83-1s-.23-1.44-.23-1.44A2.22,2.22,0,0,1,46,59.43c.33-.52.77-1.16,1.11-1.18a1.7,1.7,0,0,1-.51,1.38m.77-1.73a2,2,0,0,0-.94.52,6.17,6.17,0,0,0-.38.61c0-.9-1.49-1.5-1.57-1.42a5.15,5.15,0,0,0,0,1,1.47,1.47,0,0,0,.82,1.25c.55.35.44,1.38.44,1.38.16-.69.29-.75,1-1.33s.68-2.05.68-2.05" transform="translate(-33.38 -33)"/><path class="cls-16" d="M46.77,60c-.35.06-.7.74-1,1.29a2.21,2.21,0,0,0-1.37-1.4s-.06,1.12.38,1.4.94.58.94.93a3.89,3.89,0,0,1,.66-.8A1.65,1.65,0,0,0,46.77,60" transform="translate(-33.38 -33)"/><path class="cls-17" d="M44.52,60a2.53,2.53,0,0,1,1.19,1c.36.67-.66-.26-.8-.52a3.77,3.77,0,0,0-.39-.48" transform="translate(-33.38 -33)"/><path class="cls-17" d="M46.77,59.93S47,61,46.31,61.41s.46-1.48.46-1.48" transform="translate(-33.38 -33)"/><path class="cls-3" d="M46.4,61.46a3.54,3.54,0,0,0-.66.79c0-.35-.5-.64-.94-.93s-.38-1.4-.38-1.4a2.21,2.21,0,0,1,1.37,1.4c.28-.55.63-1.23,1-1.29a1.69,1.69,0,0,1-.37,1.43M47,59.65a1.93,1.93,0,0,0-.88.63,4.33,4.33,0,0,0-.31.64c-.15-.9-1.64-1.33-1.72-1.25a6,6,0,0,0,.07,1c0,.42.3.82,1,1.15s.59,1.33.59,1.33c.08-.71.2-.78.84-1.43A3,3,0,0,0,47,59.65" transform="translate(-33.38 -33)"/><path class="cls-16" d="M46.57,61.7c-.34.08-.65.78-.9,1.34a2.21,2.21,0,0,0-1.44-1.31s0,1.12.46,1.38,1,.52,1,.87a3.65,3.65,0,0,1,.62-.84,1.67,1.67,0,0,0,.27-1.44" transform="translate(-33.38 -33)"/><path class="cls-17" d="M44.32,61.85a2.55,2.55,0,0,1,1.26.92c.4.65-.68-.22-.83-.47a3.22,3.22,0,0,0-.43-.45" transform="translate(-33.38 -33)"/><path class="cls-17" d="M46.57,61.6s.29,1.1-.36,1.5.36-1.5.36-1.5" transform="translate(-33.38 -33)"/><path class="cls-3" d="M46.3,63.14a3.65,3.65,0,0,0-.62.84c0-.35-.54-.61-1-.87s-.46-1.38-.46-1.38A2.19,2.19,0,0,1,45.67,63c.25-.56.56-1.26.9-1.34a1.67,1.67,0,0,1-.27,1.44m.47-1.84a2,2,0,0,0-.84.68,4.52,4.52,0,0,0-.27.67c-.21-.89-1.72-1.23-1.79-1.15a5.72,5.72,0,0,0,.13,1c0,.42.35.81,1,1.1s.67,1.28.67,1.28c0-.71.14-.78.75-1.47a3,3,0,0,0,.33-2.15" transform="translate(-33.38 -33)"/><path class="cls-16" d="M46.49,63.37c-.33.08-.65.77-.89,1.34a2.22,2.22,0,0,0-1.45-1.31s0,1.12.46,1.38,1,.52,1,.86a4.15,4.15,0,0,1,.61-.83,1.67,1.67,0,0,0,.28-1.44" transform="translate(-33.38 -33)"/><path class="cls-17" d="M44.25,63.52a2.54,2.54,0,0,1,1.25.92c.41.65-.68-.22-.83-.47a3.31,3.31,0,0,0-.42-.45" transform="translate(-33.38 -33)"/><path class="cls-17" d="M46.49,63.27s.29,1.1-.36,1.5.36-1.5.36-1.5" transform="translate(-33.38 -33)"/><path class="cls-3" d="M46.21,64.81a4.15,4.15,0,0,0-.61.83c0-.34-.54-.61-1-.86s-.46-1.38-.46-1.38a2.22,2.22,0,0,1,1.45,1.31c.24-.57.56-1.26.89-1.34a1.64,1.64,0,0,1-.28,1.44M46.69,63s-.66.28-.83.67a3.78,3.78,0,0,0-.28.67c-.2-.89-1.71-1.23-1.79-1.15a6.84,6.84,0,0,0,.13,1c0,.42.36.81,1,1.09s.67,1.29.67,1.29c0-.71.15-.79.75-1.47A3,3,0,0,0,46.69,63" transform="translate(-33.38 -33)"/><path class="cls-16" d="M46.55,65c-.34.1-.6.84-.8,1.43a2.27,2.27,0,0,0-1.57-1.21s.1,1.13.58,1.36,1,.44,1.07.79a3.34,3.34,0,0,1,.56-.89A1.71,1.71,0,0,0,46.55,65" transform="translate(-33.38 -33)"/><path class="cls-17" d="M44.29,65.32a2.6,2.6,0,0,1,1.34.83c.46.63-.7-.17-.87-.4a3.55,3.55,0,0,0-.47-.43" transform="translate(-33.38 -33)"/><path class="cls-17" d="M46.53,64.89s.38,1.09-.24,1.54.24-1.54.24-1.54" transform="translate(-33.38 -33)"/><path class="cls-3" d="M46.39,66.47a3.34,3.34,0,0,0-.56.89c0-.35-.6-.57-1.07-.8s-.58-1.35-.58-1.35a2.27,2.27,0,0,1,1.57,1.21c.2-.59.46-1.33.8-1.43a1.71,1.71,0,0,1-.16,1.48m.33-1.89s-.65.35-.79.75a4,4,0,0,0-.23.69c-.28-.88-1.83-1.1-1.89-1a4.69,4.69,0,0,0,.21,1c.08.42.42.78,1.12,1s.77,1.25.77,1.25c0-.72.09-.81.65-1.55a3.07,3.07,0,0,0,.16-2.19" transform="translate(-33.38 -33)"/><path class="cls-16" d="M46.79,66.75c-.33.13-.55.88-.71,1.49a2.28,2.28,0,0,0-1.66-1.11s.17,1.14.67,1.33,1.06.38,1.13.73a3.51,3.51,0,0,1,.5-.94,1.71,1.71,0,0,0,.07-1.5" transform="translate(-33.38 -33)"/><path class="cls-17" d="M44.54,67.23a2.61,2.61,0,0,1,1.4.75c.5.6-.72-.12-.91-.35a3.29,3.29,0,0,0-.49-.4" transform="translate(-33.38 -33)"/><path class="cls-17" d="M46.77,66.65s.45,1.07-.15,1.57.15-1.57.15-1.57" transform="translate(-33.38 -33)"/><path class="cls-3" d="M46.72,68.25a3.82,3.82,0,0,0-.5.94c-.07-.35-.63-.54-1.13-.73s-.67-1.33-.67-1.33a2.28,2.28,0,0,1,1.66,1.11c.16-.61.38-1.36.71-1.49a1.71,1.71,0,0,1-.07,1.5m.21-1.93s-.62.4-.75.81a7,7,0,0,0-.18.72c-.33-.87-1.92-1-2-.9a5.46,5.46,0,0,0,.28,1,1.45,1.45,0,0,0,1.19,1c.64.17.86,1.21.86,1.21-.06-.72,0-.82.56-1.6a3.13,3.13,0,0,0,0-2.22" transform="translate(-33.38 -33)"/><path class="cls-16" d="M47.14,68.42c-.33.16-.49.93-.61,1.55a2.26,2.26,0,0,0-1.75-1s.26,1.12.77,1.28,1.09.31,1.19.65a3.41,3.41,0,0,1,.44-1,1.76,1.76,0,0,0,0-1.52" transform="translate(-33.38 -33)"/><path class="cls-17" d="M44.91,69.07a2.65,2.65,0,0,1,1.46.65c.55.56-.73-.07-.93-.28a3.53,3.53,0,0,0-.53-.37" transform="translate(-33.38 -33)"/><path class="cls-17" d="M47.11,68.33s.53,1,0,1.58,0-1.58,0-1.58" transform="translate(-33.38 -33)"/><path class="cls-3" d="M47.18,69.94a3.71,3.71,0,0,0-.44,1c-.09-.34-.67-.5-1.19-.65S44.78,69,44.78,69a2.26,2.26,0,0,1,1.75,1c.12-.62.28-1.39.61-1.55a1.76,1.76,0,0,1,0,1.52m.06-2a2,2,0,0,0-.68.87,4.47,4.47,0,0,0-.13.73c-.4-.85-2-.86-2.06-.75a6.84,6.84,0,0,0,.37,1,1.47,1.47,0,0,0,1.26.86c.66.13,1,1.15,1,1.15-.12-.72,0-.82.43-1.65A3.11,3.11,0,0,0,47.24,68" transform="translate(-33.38 -33)"/><path class="cls-16" d="M47.5,69.8c-.31.18-.39,1-.45,1.61a2.26,2.26,0,0,0-1.85-.81s.37,1.1.9,1.2,1.13.2,1.26.53a3.56,3.56,0,0,1,.34-1,1.75,1.75,0,0,0-.2-1.51" transform="translate(-33.38 -33)"/><path class="cls-17" d="M45.33,70.68a2.69,2.69,0,0,1,1.54.49c.61.51-.74,0-1-.18a3.92,3.92,0,0,0-.58-.31" transform="translate(-33.38 -33)"/><path class="cls-17" d="M47.46,69.7s.64,1,.13,1.59-.13-1.59-.13-1.59" transform="translate(-33.38 -33)"/><path class="cls-3" d="M47.7,71.31a3.56,3.56,0,0,0-.34,1c-.13-.33-.73-.42-1.26-.53s-.9-1.2-.9-1.2a2.26,2.26,0,0,1,1.85.81c.06-.64.14-1.43.45-1.61a1.75,1.75,0,0,1,.2,1.51m-.14-2a2.07,2.07,0,0,0-.6,1,5.86,5.86,0,0,0-.05.74c-.49-.81-2.09-.65-2.13-.54a6,6,0,0,0,.46,1,1.52,1.52,0,0,0,1.37.74c.66.05,1.07,1.05,1.07,1.05-.2-.71-.11-.83.26-1.7s-.38-2.22-.38-2.22" transform="translate(-33.38 -33)"/><path class="cls-16" d="M48.15,71.37c-.29.22-.27,1-.26,1.67a2.3,2.3,0,0,0-1.94-.6s.5,1.06,1,1.1,1.15.06,1.33.37a3.4,3.4,0,0,1,.21-1,1.79,1.79,0,0,0-.38-1.49" transform="translate(-33.38 -33)"/><path class="cls-17" d="M46.1,72.51a2.61,2.61,0,0,1,1.59.31c.67.44-.74.09-1-.07a4,4,0,0,0-.6-.24" transform="translate(-33.38 -33)"/><path class="cls-17" d="M48.1,71.28s.76.91.32,1.58-.32-1.58-.32-1.58" transform="translate(-33.38 -33)"/><path class="cls-3" d="M48.53,72.86a3.4,3.4,0,0,0-.21,1c-.18-.31-.79-.33-1.33-.37s-1-1.1-1-1.1a2.3,2.3,0,0,1,1.94.6c0-.65,0-1.45.26-1.67a1.76,1.76,0,0,1,.38,1.49m-.37-2a2,2,0,0,0-.48,1,5,5,0,0,0,0,.75c-.59-.75-2.17-.4-2.2-.29a6.59,6.59,0,0,0,.58.93,1.51,1.51,0,0,0,1.45.57c.67,0,1.2.93,1.2.93-.28-.69-.21-.81.06-1.73s-.64-2.17-.64-2.17" transform="translate(-33.38 -33)"/><path class="cls-16" d="M48.9,72.77c-.25.26-.12,1.06,0,1.69a2.31,2.31,0,0,0-2-.28s.67,1,1.21.92,1.15-.12,1.37.17a4,4,0,0,1,0-1.09,1.76,1.76,0,0,0-.6-1.41" transform="translate(-33.38 -33)"/><path class="cls-17" d="M47,74.22a2.66,2.66,0,0,1,1.63.06c.73.33-.72.21-1,.08a4.28,4.28,0,0,0-.64-.14" transform="translate(-33.38 -33)"/><path class="cls-17" d="M48.83,72.68s.89.79.57,1.52-.57-1.52-.57-1.52" transform="translate(-33.38 -33)"/><path class="cls-3" d="M49.5,74.18a4,4,0,0,0,0,1.09c-.22-.29-.82-.21-1.36-.17s-1.22-.92-1.22-.92a2.31,2.31,0,0,1,2,.28c-.11-.63-.25-1.43,0-1.69a1.76,1.76,0,0,1,.6,1.41m-.67-1.87a2.06,2.06,0,0,0-.33,1.08,4.61,4.61,0,0,0,.16.74c-.7-.65-2.22,0-2.23.06a7.14,7.14,0,0,0,.72.83,1.55,1.55,0,0,0,1.53.34c.67-.13,1.33.72,1.33.72-.38-.63-.33-.77-.2-1.72s-1-2-1-2" transform="translate(-33.38 -33)"/><path class="cls-16" d="M49.86,74.28c-.23.29,0,1.07.15,1.7A2.35,2.35,0,0,0,48,75.87s.75.92,1.3.83,1.14-.23,1.39,0a3.84,3.84,0,0,1,0-1.09,1.76,1.76,0,0,0-.73-1.37" transform="translate(-33.38 -33)"/><path class="cls-17" d="M48.11,75.9a2.66,2.66,0,0,1,1.64-.08c.77.26-.7.28-1,.17a3.82,3.82,0,0,0-.65-.09" transform="translate(-33.38 -33)"/><path class="cls-17" d="M49.78,74.2s1,.71.71,1.47-.71-1.47-.71-1.47" transform="translate(-33.38 -33)"/><path class="cls-3" d="M50.59,75.65a3.84,3.84,0,0,0,0,1.09c-.25-.27-.85-.14-1.39,0s-1.3-.83-1.3-.83A2.35,2.35,0,0,1,50,76c-.17-.63-.38-1.41-.15-1.7a1.76,1.76,0,0,1,.73,1.37m-.84-1.83a2.1,2.1,0,0,0-.23,1.12,4.68,4.68,0,0,0,.22.73c-.76-.59-2.23.13-2.23.25a5,5,0,0,0,.8.77,1.52,1.52,0,0,0,1.56.21c.65-.19,1.4.61,1.4.61-.44-.61-.4-.74-.36-1.71s-1.16-2-1.16-2" transform="translate(-33.38 -33)"/><path class="cls-16" d="M51.08,75.71c-.19.31.1,1.07.34,1.68a2.27,2.27,0,0,0-2.06.11s.84.83,1.37.68,1.12-.35,1.39-.11A4.15,4.15,0,0,1,52,77a1.74,1.74,0,0,0-.87-1.28" transform="translate(-33.38 -33)"/><path class="cls-17" d="M49.52,77.51a2.73,2.73,0,0,1,1.63-.26c.78.18-.68.35-1,.28a4,4,0,0,0-.66,0" transform="translate(-33.38 -33)"/><path class="cls-17" d="M51,75.64s1,.6.85,1.38S51,75.64,51,75.64" transform="translate(-33.38 -33)"/><path class="cls-3" d="M52,77a4.15,4.15,0,0,0,.17,1.08c-.27-.24-.86,0-1.39.1s-1.37-.67-1.37-.67a2.27,2.27,0,0,1,2.06-.11c-.24-.61-.53-1.37-.34-1.68A1.74,1.74,0,0,1,52,77m-1-1.72a2,2,0,0,0-.11,1.13,5.07,5.07,0,0,0,.29.7c-.81-.5-2.2.38-2.19.49a5.65,5.65,0,0,0,.88.68,1.52,1.52,0,0,0,1.57,0c.63-.25,1.46.46,1.46.46-.5-.55-.47-.7-.54-1.66s-1.36-1.84-1.36-1.84" transform="translate(-33.38 -33)"/><path class="cls-16" d="M52.41,76.88c-.14.35.29,1,.65,1.6A2.34,2.34,0,0,0,51,79s1,.66,1.5.4,1-.55,1.35-.37a4,4,0,0,1-.37-1,1.79,1.79,0,0,0-1.11-1.1" transform="translate(-33.38 -33)"/><path class="cls-17" d="M51.2,79a2.73,2.73,0,0,1,1.56-.57c.82,0-.6.47-.9.46a4.57,4.57,0,0,0-.66.11" transform="translate(-33.38 -33)"/><path class="cls-17" d="M52.31,76.83s1.15.39,1.11,1.2-1.11-1.2-1.11-1.2" transform="translate(-33.38 -33)"/><path class="cls-3" d="M53.52,78a4,4,0,0,0,.37,1c-.31-.18-.86.12-1.35.37S51,79,51,79a2.34,2.34,0,0,1,2-.51c-.36-.56-.79-1.25-.65-1.6A1.79,1.79,0,0,1,53.52,78m-1.35-1.51a2.16,2.16,0,0,0,.1,1.15,6,6,0,0,0,.43.63c-.9-.34-2.11.81-2.07.92a7,7,0,0,0,1,.51,1.56,1.56,0,0,0,1.57-.27c.57-.38,1.54.16,1.54.16-.61-.45-.61-.59-.86-1.54s-1.71-1.56-1.71-1.56" transform="translate(-33.38 -33)"/><path class="cls-16" d="M54,78c-.07.37.49,1,.95,1.47a2.41,2.41,0,0,0-1.92.89s1.13.47,1.57.13.93-.76,1.28-.63a3.74,3.74,0,0,1-.56-1A1.86,1.86,0,0,0,54,78" transform="translate(-33.38 -33)"/><path class="cls-17" d="M53.22,80.26a2.73,2.73,0,0,1,1.45-.86c.82-.13-.51.59-.81.63a4.1,4.1,0,0,0-.64.23" transform="translate(-33.38 -33)"/><path class="cls-17" d="M53.93,77.92s1.21.18,1.33,1-1.33-1-1.33-1" transform="translate(-33.38 -33)"/><path class="cls-3" d="M55.35,78.84a3.74,3.74,0,0,0,.56,1c-.35-.13-.84.28-1.28.63s-1.57-.13-1.57-.13A2.41,2.41,0,0,1,55,79.42c-.46-.49-1-1.1-.95-1.47a1.86,1.86,0,0,1,1.32.89m-1.63-1.25A2.1,2.1,0,0,0,54,78.71a5.86,5.86,0,0,0,.55.56c-1-.18-2,1.19-1.91,1.3a6.08,6.08,0,0,0,1.09.31,1.55,1.55,0,0,0,1.52-.56c.5-.48,1.56-.12,1.56-.12-.68-.34-.72-.48-1.14-1.38s-2-1.23-2-1.23" transform="translate(-33.38 -33)"/><path class="cls-16" d="M64.08,49.75c.29-.18,1,.1,1.51.32a2.14,2.14,0,0,1,.13-1.86s.74.77.6,1.25-.33,1-.12,1.26a3.24,3.24,0,0,0-1-.16,1.61,1.61,0,0,1-1.15-.81" transform="translate(-33.38 -33)"/><path class="cls-17" d="M65.73,48.35a2.44,2.44,0,0,0-.25,1.47c.15.72.32-.6.26-.87a4.22,4.22,0,0,1,0-.6" transform="translate(-33.38 -33)"/><path class="cls-17" d="M64,49.67s.53.95,1.24.79S64,49.67,64,49.67" transform="translate(-33.38 -33)"/><path class="cls-3" d="M64.08,49.75c.29-.18,1,.1,1.51.32a2.13,2.13,0,0,1,.13-1.86s.74.77.6,1.25-.33,1-.12,1.26a3.29,3.29,0,0,0-1-.16,1.63,1.63,0,0,1-1.15-.81m1.25,1.12c.87.06,1,0,1.49.51,0,0-.63-.76-.38-1.34a1.4,1.4,0,0,0,0-1.42,6.14,6.14,0,0,0-.6-.81c-.11,0-.93,1.23-.48,2a3.86,3.86,0,0,0-.63-.27,1.81,1.81,0,0,0-1,.09s.77,1.19,1.64,1.26" transform="translate(-33.38 -33)"/><path class="cls-16" d="M65.57,50.94c.29-.17,1,.1,1.51.33a2.13,2.13,0,0,1,.13-1.87s.74.78.6,1.26-.33,1-.11,1.25a3.4,3.4,0,0,0-1-.16,1.61,1.61,0,0,1-1.15-.81" transform="translate(-33.38 -33)"/><path class="cls-17" d="M67.22,49.55A2.46,2.46,0,0,0,67,51c.15.71.33-.6.26-.87a3.83,3.83,0,0,1,0-.6" transform="translate(-33.38 -33)"/><path class="cls-17" d="M65.51,50.87s.53,1,1.24.79-1.24-.79-1.24-.79" transform="translate(-33.38 -33)"/><path class="cls-3" d="M65.57,50.94c.29-.17,1,.1,1.51.33a2.13,2.13,0,0,1,.13-1.87s.74.78.6,1.26-.33,1-.12,1.25a3.66,3.66,0,0,0-1-.16,1.61,1.61,0,0,1-1.15-.81m1.25,1.12c.87.07,1,0,1.49.51,0,0-.63-.76-.39-1.33a1.42,1.42,0,0,0,0-1.43A5.75,5.75,0,0,0,67.3,49c-.1,0-.92,1.24-.47,2a5.89,5.89,0,0,0-.63-.27,2,2,0,0,0-1,.09S66,52,66.82,52.06" transform="translate(-33.38 -33)"/><path class="cls-16" d="M66.64,52.22c.29-.15,1,.18,1.47.45a2.18,2.18,0,0,1,.28-1.86s.68.84.5,1.3-.4,1-.22,1.25a3.21,3.21,0,0,0-1-.24,1.61,1.61,0,0,1-1.08-.9" transform="translate(-33.38 -33)"/><path class="cls-17" d="M68.39,51A2.44,2.44,0,0,0,68,52.41c.09.72.37-.58.33-.85a3.69,3.69,0,0,1,0-.6" transform="translate(-33.38 -33)"/><path class="cls-17" d="M66.58,52.14s.46,1,1.18.89-1.18-.89-1.18-.89" transform="translate(-33.38 -33)"/><path class="cls-3" d="M66.64,52.22c.29-.15,1,.18,1.47.45a2.14,2.14,0,0,1,.28-1.86s.68.84.5,1.3-.41,1-.22,1.25a3.21,3.21,0,0,0-1-.24,1.61,1.61,0,0,1-1.08-.9m1.16,1.21c.86.14,1,.13,1.45.63,0,0-.58-.81-.29-1.36a1.38,1.38,0,0,0,.09-1.43,6.58,6.58,0,0,0-.54-.85c-.1,0-1,1.16-.62,1.95a3.84,3.84,0,0,0-.61-.33,1.84,1.84,0,0,0-1,0s.68,1.25,1.55,1.38" transform="translate(-33.38 -33)"/><path class="cls-16" d="M67.51,53.56c.32-.11.92.3,1.41.63a2.15,2.15,0,0,1,.51-1.8s.56.91.33,1.35-.53.92-.37,1.21a3.24,3.24,0,0,0-.92-.36,1.62,1.62,0,0,1-1-1" transform="translate(-33.38 -33)"/><path class="cls-17" d="M69.41,52.53a2.51,2.51,0,0,0-.55,1.39c0,.73.44-.52.44-.8a3.69,3.69,0,0,1,.11-.59" transform="translate(-33.38 -33)"/><path class="cls-17" d="M67.46,53.47s.33,1,1.06,1-1.06-1-1.06-1" transform="translate(-33.38 -33)"/><path class="cls-3" d="M67.51,53.56c.32-.11.93.3,1.41.63a2.15,2.15,0,0,1,.51-1.8s.56.91.33,1.35-.53.92-.37,1.21a3.24,3.24,0,0,0-.92-.36,1.62,1.62,0,0,1-1-1m1,1.35c.85.25,1,.25,1.36.81,0,0-.46-.88-.11-1.39a1.4,1.4,0,0,0,.28-1.4A5.32,5.32,0,0,0,69.6,52c-.1,0-1.15,1-.87,1.84a4.37,4.37,0,0,0-.56-.4,1.87,1.87,0,0,0-1-.12s.51,1.32,1.35,1.57" transform="translate(-33.38 -33)"/><path class="cls-16" d="M68.26,55c.33-.08.9.42,1.36.82A2.21,2.21,0,0,1,70.36,54s.46,1,.17,1.42-.65.87-.53,1.19a3.29,3.29,0,0,0-.89-.48A1.69,1.69,0,0,1,68.26,55" transform="translate(-33.38 -33)"/><path class="cls-17" d="M70.32,54.18a2.56,2.56,0,0,0-.73,1.34c-.09.75.52-.48.55-.76a2.89,2.89,0,0,1,.18-.58" transform="translate(-33.38 -33)"/><path class="cls-17" d="M68.22,54.89s.21,1.1,1,1.19-1-1.19-1-1.19" transform="translate(-33.38 -33)"/><path class="cls-3" d="M68.26,55c.33-.08.9.42,1.36.82A2.21,2.21,0,0,1,70.36,54s.46,1,.16,1.42-.64.87-.52,1.19a3.29,3.29,0,0,0-.89-.48A1.69,1.69,0,0,1,68.26,55m.85,1.5c.82.36,1,.38,1.28,1,0,0-.36-.95.06-1.42a1.43,1.43,0,0,0,.45-1.4,6.83,6.83,0,0,0-.31-1c-.1,0-1.31.89-1.12,1.77A5.4,5.4,0,0,0,69,55a1.9,1.9,0,0,0-1-.25s.36,1.41,1.19,1.77" transform="translate(-33.38 -33)"/><path class="cls-16" d="M68.93,56.6c.34,0,.84.53,1.24,1a2.18,2.18,0,0,1,1-1.66s.33,1,0,1.43-.76.77-.68,1.1a3.28,3.28,0,0,0-.82-.59,1.67,1.67,0,0,1-.69-1.27" transform="translate(-33.38 -33)"/><path class="cls-17" d="M71.08,56.07a2.51,2.51,0,0,0-.9,1.24c-.18.72.57-.41.64-.69a3.24,3.24,0,0,1,.26-.55" transform="translate(-33.38 -33)"/><path class="cls-17" d="M68.91,56.5s0,1.11.78,1.3-.78-1.3-.78-1.3" transform="translate(-33.38 -33)"/><path class="cls-3" d="M68.93,56.6c.34,0,.84.53,1.24,1a2.18,2.18,0,0,1,1-1.66s.33,1,0,1.43-.76.77-.68,1.1a3.28,3.28,0,0,0-.82-.59,1.67,1.67,0,0,1-.69-1.27m.64,1.6c.77.46.9.5,1.15,1.15,0,0-.24-1,.24-1.4a1.42,1.42,0,0,0,.63-1.33,5.93,5.93,0,0,0-.18-1c-.09-.06-1.41.72-1.34,1.61a3.71,3.71,0,0,0-.46-.55,2,2,0,0,0-1-.39s.17,1.45.94,1.92" transform="translate(-33.38 -33)"/><path class="cls-16" d="M69.47,58.24c.35,0,.77.66,1.11,1.17a2.23,2.23,0,0,1,1.21-1.54S72,59,71.57,59.31s-.87.68-.84,1a3.21,3.21,0,0,0-.75-.71,1.7,1.7,0,0,1-.51-1.38" transform="translate(-33.38 -33)"/><path class="cls-17" d="M71.71,58a2.57,2.57,0,0,0-1.08,1.12c-.29.71.64-.34.74-.6a2.88,2.88,0,0,1,.34-.52" transform="translate(-33.38 -33)"/><path class="cls-17" d="M69.46,58.14s-.1,1.13.61,1.42-.61-1.42-.61-1.42" transform="translate(-33.38 -33)"/><path class="cls-3" d="M69.47,58.24c.35,0,.77.66,1.11,1.17a2.23,2.23,0,0,1,1.21-1.54S72,59,71.57,59.31s-.88.68-.84,1a3.21,3.21,0,0,0-.75-.71,1.7,1.7,0,0,1-.51-1.38m.42,1.7c.71.58.84.63,1,1.33,0,0-.11-1,.44-1.38a1.47,1.47,0,0,0,.82-1.25,5.32,5.32,0,0,0-.05-1c-.09-.07-1.52.53-1.56,1.43,0,0-.07-.13-.39-.61a2,2,0,0,0-.94-.53s0,1.49.68,2.06" transform="translate(-33.38 -33)"/><path class="cls-16" d="M69.81,60c.34,0,.7.73,1,1.28a2.22,2.22,0,0,1,1.37-1.39s.06,1.12-.38,1.4-.94.58-.94.93a3.11,3.11,0,0,0-.66-.79A1.69,1.69,0,0,1,69.81,60" transform="translate(-33.38 -33)"/><path class="cls-17" d="M72.06,60a2.48,2.48,0,0,0-1.19,1c-.37.67.66-.26.8-.52a2.63,2.63,0,0,1,.39-.48" transform="translate(-33.38 -33)"/><path class="cls-17" d="M69.81,59.92s-.22,1.11.46,1.47-.46-1.47-.46-1.47" transform="translate(-33.38 -33)"/><path class="cls-3" d="M69.81,60c.34,0,.7.73,1,1.28a2.19,2.19,0,0,1,1.37-1.39s.06,1.12-.38,1.4-.94.58-.94.93a3.11,3.11,0,0,0-.66-.79A1.69,1.69,0,0,1,69.81,60m.24,1.74c.65.64.76.72.84,1.42,0,0,0-1,.59-1.32s.93-.74,1-1.16a4.87,4.87,0,0,0,.06-1.05c-.07-.07-1.56.36-1.71,1.26a4.58,4.58,0,0,0-.31-.65,2,2,0,0,0-.88-.63s-.19,1.48.46,2.13" transform="translate(-33.38 -33)"/><path class="cls-16" d="M70,61.69c.34.07.65.78.9,1.34a2.22,2.22,0,0,1,1.45-1.31s0,1.12-.46,1.38-1,.52-1,.86a3.56,3.56,0,0,0-.62-.83A1.67,1.67,0,0,1,70,61.69" transform="translate(-33.38 -33)"/><path class="cls-17" d="M72.26,61.84a2.55,2.55,0,0,0-1.26.92c-.4.65.68-.22.83-.46a2.91,2.91,0,0,1,.43-.46" transform="translate(-33.38 -33)"/><path class="cls-17" d="M70,61.59s-.28,1.1.37,1.5-.37-1.5-.37-1.5" transform="translate(-33.38 -33)"/><path class="cls-3" d="M70,61.69c.34.07.65.78.9,1.34a2.22,2.22,0,0,1,1.45-1.31s0,1.12-.46,1.38-1,.52-1,.86a3.56,3.56,0,0,0-.62-.83A1.67,1.67,0,0,1,70,61.69m.13,1.75c.6.69.72.76.76,1.47,0,0,.07-1,.66-1.29s1-.67,1-1.09a5.72,5.72,0,0,0,.13-1c-.07-.08-1.58.26-1.78,1.15a5.47,5.47,0,0,0-.28-.67,2,2,0,0,0-.84-.68,3,3,0,0,0,.33,2.15" transform="translate(-33.38 -33)"/><path class="cls-16" d="M70.09,63.36c.33.07.65.78.9,1.34a2.16,2.16,0,0,1,1.44-1.31s0,1.12-.46,1.37-1,.53-1,.87a3.87,3.87,0,0,0-.62-.83,1.68,1.68,0,0,1-.27-1.44" transform="translate(-33.38 -33)"/><path class="cls-17" d="M72.33,63.5a2.62,2.62,0,0,0-1.25.92c-.4.66.68-.21.83-.46a3.58,3.58,0,0,1,.42-.46" transform="translate(-33.38 -33)"/><path class="cls-17" d="M70.09,63.26s-.29,1.09.36,1.49-.36-1.49-.36-1.49" transform="translate(-33.38 -33)"/><path class="cls-3" d="M70.09,63.36c.34.07.65.78.9,1.34a2.16,2.16,0,0,1,1.44-1.31s0,1.12-.46,1.37-1,.53-1,.87a3.87,3.87,0,0,0-.62-.83,1.68,1.68,0,0,1-.27-1.44m.12,1.75c.62.68.73.76.76,1.47,0,0,.08-1,.67-1.29s1-.68,1-1.09a5.82,5.82,0,0,0,.13-1c-.07-.09-1.59.26-1.79,1.14a4,4,0,0,0-.28-.66c-.17-.39-.83-.68-.83-.68a3.08,3.08,0,0,0,.32,2.15" transform="translate(-33.38 -33)"/><path class="cls-16" d="M70,65c.33.1.7.84.8,1.43A2.21,2.21,0,0,1,72.4,65.2s-.1,1.13-.58,1.35-1,.45-1.07.79a3.74,3.74,0,0,0-.55-.88A1.67,1.67,0,0,1,70,65" transform="translate(-33.38 -33)"/><path class="cls-17" d="M72.29,65.31a2.64,2.64,0,0,0-1.34.83c-.46.62.7-.17.87-.41a4.08,4.08,0,0,1,.47-.42" transform="translate(-33.38 -33)"/><path class="cls-17" d="M70.05,64.88s-.38,1.08.24,1.54-.24-1.54-.24-1.54" transform="translate(-33.38 -33)"/><path class="cls-3" d="M70,65c.33.1.7.84.8,1.43A2.21,2.21,0,0,1,72.4,65.2s-.1,1.13-.58,1.35-1,.45-1.07.79a3.74,3.74,0,0,0-.55-.88A1.67,1.67,0,0,1,70,65m0,1.77c.56.74.67.83.65,1.55,0,0,.16-1,.77-1.25s1-.6,1.12-1A5.72,5.72,0,0,0,72.78,65c-.07-.08-1.63.14-1.9,1a4.47,4.47,0,0,0-.22-.7c-.15-.4-.79-.74-.79-.74A3,3,0,0,0,70,66.75" transform="translate(-33.38 -33)"/><path class="cls-16" d="M69.79,66.74c.33.13.55.88.71,1.49a2.32,2.32,0,0,1,1.66-1.12s-.17,1.14-.67,1.34-1.06.38-1.13.72a3.92,3.92,0,0,0-.5-.93,1.71,1.71,0,0,1-.07-1.5" transform="translate(-33.38 -33)"/><path class="cls-17" d="M72.05,67.22a2.62,2.62,0,0,0-1.41.75c-.5.59.72-.12.9-.35a3.72,3.72,0,0,1,.51-.4" transform="translate(-33.38 -33)"/><path class="cls-17" d="M69.81,66.64s-.45,1.07.15,1.57-.15-1.57-.15-1.57" transform="translate(-33.38 -33)"/><path class="cls-3" d="M69.79,66.74c.33.13.55.88.71,1.49a2.32,2.32,0,0,1,1.66-1.12s-.17,1.14-.67,1.34-1.06.38-1.13.72a3.92,3.92,0,0,0-.5-.93,1.7,1.7,0,0,1-.07-1.5m-.12,1.78c.51.79.61.89.54,1.61,0,0,.23-1,.87-1.21a1.48,1.48,0,0,0,1.19-1,6,6,0,0,0,.29-1c-.07-.1-1.65,0-2,.9a7,7,0,0,0-.18-.72c-.13-.41-.75-.81-.75-.81a3.06,3.06,0,0,0,0,2.21" transform="translate(-33.38 -33)"/><path class="cls-16" d="M69.44,68.41c.33.15.49.93.61,1.55a2.33,2.33,0,0,1,1.75-1s-.26,1.13-.77,1.29-1.1.3-1.19.65a3.63,3.63,0,0,0-.44-1,1.77,1.77,0,0,1,0-1.51" transform="translate(-33.38 -33)"/><path class="cls-17" d="M71.67,69.06a2.57,2.57,0,0,0-1.46.65c-.55.56.73-.07.93-.28a3.3,3.3,0,0,1,.53-.37" transform="translate(-33.38 -33)"/><path class="cls-17" d="M69.47,68.31s-.53,1,0,1.59,0-1.59,0-1.59" transform="translate(-33.38 -33)"/><path class="cls-3" d="M69.44,68.41c.33.15.49.93.61,1.55a2.33,2.33,0,0,1,1.75-1s-.26,1.13-.77,1.29-1.1.3-1.19.65a3.63,3.63,0,0,0-.44-1,1.77,1.77,0,0,1,0-1.51m-.25,1.79c.46.82.55.93.43,1.65,0,0,.3-1,1-1.15a1.47,1.47,0,0,0,1.26-.87,6.46,6.46,0,0,0,.37-1c-.06-.1-1.66-.1-2.06.75a4.47,4.47,0,0,0-.13-.73,2,2,0,0,0-.69-.87,3.13,3.13,0,0,0-.14,2.23" transform="translate(-33.38 -33)"/><path class="cls-16" d="M69.08,69.79c.31.18.39,1,.45,1.61a2.26,2.26,0,0,1,1.85-.81s-.37,1.1-.91,1.2-1.12.19-1.25.52a3.79,3.79,0,0,0-.34-1,1.76,1.76,0,0,1,.2-1.5" transform="translate(-33.38 -33)"/><path class="cls-17" d="M71.25,70.67a2.63,2.63,0,0,0-1.54.49c-.61.51.74,0,1-.19a3.63,3.63,0,0,1,.57-.3" transform="translate(-33.38 -33)"/><path class="cls-17" d="M69.12,69.69s-.64,1-.13,1.59.13-1.59.13-1.59" transform="translate(-33.38 -33)"/><path class="cls-3" d="M69.08,69.79c.31.18.39,1,.45,1.61a2.26,2.26,0,0,1,1.85-.81s-.37,1.1-.91,1.2-1.12.19-1.25.52a3.79,3.79,0,0,0-.34-1,1.76,1.76,0,0,1,.2-1.5m-.44,1.76c.37.87.46,1,.26,1.69,0,0,.41-1,1.08-1a1.51,1.51,0,0,0,1.36-.73,7.43,7.43,0,0,0,.47-1c0-.11-1.65-.27-2.14.54a4,4,0,0,0,0-.75,2,2,0,0,0-.6-.94,3.17,3.17,0,0,0-.38,2.22" transform="translate(-33.38 -33)"/><path class="cls-16" d="M68.43,71.36c.29.22.27,1,.25,1.67a2.29,2.29,0,0,1,1.95-.6s-.5,1.06-1,1.09-1.14.06-1.32.38a3.54,3.54,0,0,0-.22-1.05,1.79,1.79,0,0,1,.38-1.49" transform="translate(-33.38 -33)"/><path class="cls-17" d="M70.49,72.49a2.65,2.65,0,0,0-1.59.32c-.67.43.74.1,1-.07a3.37,3.37,0,0,1,.61-.25" transform="translate(-33.38 -33)"/><path class="cls-17" d="M68.48,71.27s-.76.91-.32,1.57.32-1.57.32-1.57" transform="translate(-33.38 -33)"/><path class="cls-3" d="M68.43,71.36c.28.22.27,1,.25,1.67a2.29,2.29,0,0,1,1.95-.6s-.5,1.06-1,1.09-1.14.06-1.32.38a3.54,3.54,0,0,0-.22-1.05,1.79,1.79,0,0,1,.38-1.49m-.65,1.71c.27.91.34,1,.06,1.72,0,0,.53-.94,1.2-.92a1.52,1.52,0,0,0,1.45-.57,6.59,6.59,0,0,0,.58-.93c0-.11-1.61-.46-2.2.29a5.5,5.5,0,0,0,0-.75,2.08,2.08,0,0,0-.49-1s-.91,1.25-.64,2.17" transform="translate(-33.38 -33)"/><path class="cls-16" d="M67.69,72.76c.25.26.11,1,0,1.69a2.33,2.33,0,0,1,2-.29s-.67,1-1.21.93-1.15-.12-1.37.17a4,4,0,0,0,0-1.09,1.75,1.75,0,0,1,.61-1.41" transform="translate(-33.38 -33)"/><path class="cls-17" d="M69.55,74.21a2.66,2.66,0,0,0-1.63.06c-.73.33.72.21,1,.08a3.28,3.28,0,0,1,.64-.14" transform="translate(-33.38 -33)"/><path class="cls-17" d="M67.76,72.67s-.9.78-.57,1.52.57-1.52.57-1.52" transform="translate(-33.38 -33)"/><path class="cls-3" d="M67.69,72.76c.25.26.11,1,0,1.69a2.33,2.33,0,0,1,2-.29s-.67,1-1.21.93-1.15-.12-1.37.17a4,4,0,0,0,0-1.09,1.75,1.75,0,0,1,.61-1.41m-.91,1.59c.12,1,.17,1.08-.21,1.72,0,0,.67-.85,1.33-.72A1.49,1.49,0,0,0,69.42,75a6,6,0,0,0,.73-.82c0-.12-1.53-.71-2.23-.06a4.61,4.61,0,0,0,.16-.74,2.11,2.11,0,0,0-.33-1.09s-1.1,1.1-1,2.06" transform="translate(-33.38 -33)"/><path class="cls-16" d="M66.72,74.27c.23.29,0,1.07-.15,1.7a2.35,2.35,0,0,1,2.06-.11s-.75.92-1.3.82-1.14-.22-1.38,0a3.85,3.85,0,0,0,0-1.1,1.79,1.79,0,0,1,.73-1.36" transform="translate(-33.38 -33)"/><path class="cls-17" d="M68.47,75.89a2.74,2.74,0,0,0-1.65-.09c-.76.27.71.28,1,.18a3.82,3.82,0,0,1,.65-.09" transform="translate(-33.38 -33)"/><path class="cls-17" d="M66.8,74.19s-1,.71-.7,1.47.7-1.47.7-1.47" transform="translate(-33.38 -33)"/><path class="cls-3" d="M66.72,74.27c.23.29,0,1.07-.15,1.7a2.35,2.35,0,0,1,2.06-.11s-.75.92-1.3.82-1.14-.22-1.38,0a3.85,3.85,0,0,0,0-1.1,1.79,1.79,0,0,1,.73-1.36m-1,1.51c0,1,.08,1.11-.36,1.72,0,0,.75-.8,1.4-.61a1.54,1.54,0,0,0,1.56-.21,7.19,7.19,0,0,0,.81-.77c0-.12-1.48-.85-2.23-.26a6.54,6.54,0,0,0,.21-.72,2.08,2.08,0,0,0-.24-1.12s-1.19,1-1.15,2" transform="translate(-33.38 -33)"/><path class="cls-16" d="M65.5,75.7c.19.31-.1,1.07-.33,1.67a2.28,2.28,0,0,1,2,.12s-.84.83-1.37.67-1.11-.34-1.39-.1A3.77,3.77,0,0,0,64.63,77a1.74,1.74,0,0,1,.87-1.27" transform="translate(-33.38 -33)"/><path class="cls-17" d="M67.06,77.49a2.66,2.66,0,0,0-1.62-.25c-.79.18.67.35,1,.28a3.23,3.23,0,0,1,.65,0" transform="translate(-33.38 -33)"/><path class="cls-17" d="M65.58,75.63s-1,.6-.85,1.38.85-1.38.85-1.38" transform="translate(-33.38 -33)"/><path class="cls-3" d="M65.5,75.7c.2.31-.1,1.07-.34,1.67a2.34,2.34,0,0,1,2.06.11s-.84.84-1.37.68-1.11-.34-1.39-.1A3.77,3.77,0,0,0,64.63,77a1.74,1.74,0,0,1,.87-1.27m-1.21,1.4c-.06,1,0,1.11-.54,1.66,0,0,.83-.72,1.46-.46a1.54,1.54,0,0,0,1.58,0,5.94,5.94,0,0,0,.87-.68c0-.12-1.37-1-2.19-.49a4,4,0,0,0,.3-.7,2.15,2.15,0,0,0-.12-1.14s-1.3.88-1.36,1.85" transform="translate(-33.38 -33)"/><path class="cls-16" d="M64.18,76.87c.13.34-.3,1-.66,1.59a2.33,2.33,0,0,1,2,.52s-1,.66-1.49.4-1-.56-1.36-.37a4,4,0,0,0,.37-1,1.78,1.78,0,0,1,1.12-1.1" transform="translate(-33.38 -33)"/><path class="cls-17" d="M65.38,79a2.79,2.79,0,0,0-1.56-.58c-.82,0,.6.48.9.47a3.48,3.48,0,0,1,.66.11" transform="translate(-33.38 -33)"/><path class="cls-17" d="M64.27,76.81s-1.14.4-1.11,1.21,1.11-1.21,1.11-1.21" transform="translate(-33.38 -33)"/><path class="cls-3" d="M64.18,76.87c.13.34-.3,1-.66,1.59a2.33,2.33,0,0,1,2,.52s-1,.66-1.5.4-1-.56-1.35-.37a4,4,0,0,0,.37-1,1.78,1.78,0,0,1,1.12-1.1M62.7,78c-.25.94-.25,1.09-.86,1.54,0,0,1-.54,1.54-.17a1.55,1.55,0,0,0,1.58.27,6.81,6.81,0,0,0,1-.5c0-.12-1.17-1.26-2.08-.92a5.79,5.79,0,0,0,.43-.64,2.12,2.12,0,0,0,.1-1.14S63,77.07,62.7,78" transform="translate(-33.38 -33)"/><path class="cls-16" d="M62.55,77.94c.07.37-.5,1-.95,1.47a2.36,2.36,0,0,1,1.92.89s-1.13.47-1.57.12-.93-.75-1.28-.63a3.71,3.71,0,0,0,.56-1,1.8,1.8,0,0,1,1.32-.89" transform="translate(-33.38 -33)"/><path class="cls-17" d="M63.36,80.25a2.79,2.79,0,0,0-1.45-.87c-.82-.12.5.59.82.64a3.37,3.37,0,0,1,.63.23" transform="translate(-33.38 -33)"/><path class="cls-17" d="M62.65,77.9s-1.21.18-1.33,1,1.33-1,1.33-1" transform="translate(-33.38 -33)"/><path class="cls-3" d="M62.55,77.94c.07.37-.5,1-.95,1.47a2.36,2.36,0,0,1,1.92.89s-1.13.47-1.57.12-.93-.75-1.28-.63a3.71,3.71,0,0,0,.56-1,1.8,1.8,0,0,1,1.32-.89m-1.68.87c-.42.9-.46,1-1.15,1.38,0,0,1.07-.37,1.57.12a1.56,1.56,0,0,0,1.51.56,6.43,6.43,0,0,0,1.09-.31c.06-.11-.93-1.48-1.89-1.3a5.86,5.86,0,0,0,.55-.56,2.15,2.15,0,0,0,.31-1.12s-1.56.33-2,1.23" transform="translate(-33.38 -33)"/><path class="cls-3" d="M56.53,80a21.6,21.6,0,0,0,4.35,1l.09.56s-4.72-1.19-5.33-1.45c-.19-.08-.33-.27.89-.09" transform="translate(-33.38 -33)"/><path class="cls-3" d="M60.25,79.87A21.93,21.93,0,0,1,55.64,81l0,.53s4.66-1.25,5.29-1.45c.15,0,.59-.39-.63-.21" transform="translate(-33.38 -33)"/><path class="cls-6" d="M58.87,80.53S59.92,82,61,81.72c-.22.72-.9,1.2-1.24,1s-1.2-.94-1.13-1.52.28-.68.28-.68" transform="translate(-33.38 -33)"/><path class="cls-2" d="M60.71,82.22a4.47,4.47,0,0,1-2-1.41,1.14,1.14,0,0,0-.08.33,5.26,5.26,0,0,0,1.75,1.45,1.82,1.82,0,0,0,.36-.37" transform="translate(-33.38 -33)"/><path class="cls-6" d="M57.72,80.54s-1,1.43-2.09,1.18c.22.73.89,1.2,1.24,1s1.2-.95,1.13-1.53-.28-.67-.28-.67" transform="translate(-33.38 -33)"/><path class="cls-2" d="M55.87,82.23a4.52,4.52,0,0,0,2-1.42,1.77,1.77,0,0,1,.08.33,5.37,5.37,0,0,1-1.75,1.46,2.16,2.16,0,0,1-.37-.37" transform="translate(-33.38 -33)"/><path class="cls-6" d="M58.3,79.06c-.7,0-2.54,0-1.72,1a3.67,3.67,0,0,0,1.72,1,3.49,3.49,0,0,0,1.64-1c.82-1-.94-1-1.64-1" transform="translate(-33.38 -33)"/><path class="cls-2" d="M58.27,79.28c-.34,0-1,.27-.63.92a1.65,1.65,0,0,0,.65.64h0a1.7,1.7,0,0,0,.6-.63c.4-.65-.28-.93-.62-.93" transform="translate(-33.38 -33)"/><path class="cls-6" d="M58.23,80.18h0c-.61,0-1,.3-.76.63s.53.57.76.57h0c.23,0,.49-.17.76-.57s-.15-.63-.77-.63" transform="translate(-33.38 -33)"/><path class="cls-2" d="M58.23,80.43h0c-.31,0-.49.16-.38.34s.26.3.38.3.25-.09.39-.3-.08-.33-.39-.34" transform="translate(-33.38 -33)"/><path class="cls-2" d="M57.32,79.32a.84.84,0,0,0,.14,1.13c-.32-.23-1.4-.9-.14-1.13" transform="translate(-33.38 -33)"/><path class="cls-2" d="M59.16,79.32A.86.86,0,0,1,59,80.45c.32-.23,1.39-.9.14-1.13" transform="translate(-33.38 -33)"/><path class="cls-3" d="M37.07,65.54a2.63,2.63,0,0,1-.19-.93,1.61,1.61,0,0,1,.43-1.24,2.76,2.76,0,0,1,1.92-.65c1.81,0,2.53.93,2.56,1.87a1.57,1.57,0,0,1-.13.75L41,65.21a1.08,1.08,0,0,0,.1-.56c0-.62-.49-1.18-1.86-1.14s-1.73.55-1.71,1.06a.6.6,0,0,0,0,.25l1.34,0v-.51l.63,0,0,1.22Z" transform="translate(-33.38 -33)"/><path class="cls-3" d="M39.61,67.58c-1,.18-1.74.5-1.66,1s1,.5,1.91.33,1.73-.44,1.64-.94-.9-.54-1.89-.37M40,69.67c-1.79.31-2.6-.2-2.75-1S38,67,39.48,66.8s2.52.12,2.68,1.08-.85,1.57-2.13,1.79" transform="translate(-33.38 -33)"/><path class="cls-3" d="M41,71.69l.07.21a.72.72,0,0,0,.93.44.62.62,0,0,0,.46-.85,1.22,1.22,0,0,0-.11-.25Zm-2.12.7a.8.8,0,0,0,0,.23.76.76,0,0,0,1,.51.79.79,0,0,0,.55-1l-.07-.21Zm3.72-2a4.6,4.6,0,0,1,.39.88,1.75,1.75,0,0,1,0,1.19,1.19,1.19,0,0,1-1.94.25h0a1.16,1.16,0,0,1-.86,1.19,1.34,1.34,0,0,1-1,0,1.82,1.82,0,0,1-.89-1.23,4.44,4.44,0,0,1-.21-.78Z" transform="translate(-33.38 -33)"/><rect class="cls-3" x="39.5" y="74.86" width="4.82" height="0.77" transform="translate(-61.54 -7.83) rotate(-25.34)"/><polygon class="cls-3" points="10.31 45.8 9.7 44.83 8.41 45.65 9.1 46.75 8.54 47.1 7.44 45.36 11.52 42.78 12.57 44.46 12.01 44.81 11.36 43.79 10.24 44.49 10.85 45.46 10.31 45.8"/><path class="cls-3" d="M45.47,80.44l.14.15a.76.76,0,0,0,1.13,0c.35-.32.46-.67.14-1a1,1,0,0,0-.2-.17Zm1.11-2a3.86,3.86,0,0,1,.68.62,1.69,1.69,0,0,1,.53,1.12,1.29,1.29,0,0,1-.48.93,1.28,1.28,0,0,1-1.42.24h0c.14.34,0,.68-.34,1.14a6.87,6.87,0,0,0-.75,1.06L44.26,83A6.15,6.15,0,0,1,45,82c.41-.49.44-.75.18-1L45,80.83l-1.5,1.34L43,81.6Z" transform="translate(-33.38 -33)"/><path class="cls-3" d="M46.22,84.86,49.07,81l.56.41-.55,2.15c-.12.45-.29,1.1-.44,1.56h0c.33-.52.73-1.15,1.24-1.85l.8-1.1.54.4-2.84,3.9L47.83,86l.54-2.14a15.14,15.14,0,0,1,.48-1.55h0c-.3.47-.68,1-1.27,1.85l-.79,1.08Z" transform="translate(-33.38 -33)"/><path class="cls-3" d="M51.88,85.55c-.39,1-.48,1.75,0,1.93s.92-.56,1.28-1.46.53-1.7,0-1.89-.92.49-1.3,1.42m2,.73c-.67,1.69-1.53,2.12-2.32,1.8s-1-1.47-.41-2.83,1.42-2.08,2.32-1.72.89,1.55.41,2.75" transform="translate(-33.38 -33)"/><path class="cls-3" d="M58.08,86.85h.19c.5,0,.77-.36.76-.91s-.2-.82-.71-.82a.93.93,0,0,0-.27,0Zm-.8-2.23a3.41,3.41,0,0,1,.9-.11,1.63,1.63,0,0,1,1.2.34,1.35,1.35,0,0,1,.41,1A1.52,1.52,0,0,1,59.45,87a1.49,1.49,0,0,1-1.14.52H58.1l0,1.88-.75,0Z" transform="translate(-33.38 -33)"/><path class="cls-3" d="M62,86.31l.19,0a.76.76,0,0,0,.49-1c-.12-.45-.4-.71-.87-.59a.79.79,0,0,0-.24.1Zm-1.31-1.88a4.16,4.16,0,0,1,.86-.33,1.72,1.72,0,0,1,1.25,0,1.41,1.41,0,0,1,.2,2.22v0c.37,0,.62.29.86.81a8.07,8.07,0,0,0,.62,1.15l-.76.21a7.71,7.71,0,0,1-.55-1.07c-.26-.58-.48-.73-.85-.63l-.17,0,.53,1.93-.73.2Z" transform="translate(-33.38 -33)"/><path class="cls-3" d="M65.66,85.11c.52.92,1.07,1.47,1.49,1.23s.14-1.08-.34-1.92-1-1.46-1.45-1.21-.2,1,.3,1.9M67.48,84c.9,1.58.71,2.51,0,2.94S65.69,86.77,65,85.5s-.75-2.4.09-2.89,1.78.27,2.42,1.39" transform="translate(-33.38 -33)"/><path class="cls-3" d="M70.86,84.42l-4-2.83.62-.56,1.75,1.32c.43.33.95.72,1.39,1.11l0,0c-.35-.48-.69-1-1-1.49l-1.16-1.84.61-.56,2.43,4.31Z" transform="translate(-33.38 -33)"/><rect class="cls-3" x="71.36" y="77.6" width="0.77" height="4.82" transform="translate(-68.95 52.68) rotate(-51.14)"/><path class="cls-3" d="M75.08,79.59l-4.16-2.44.36-.61,2.19.35c.46.07,1.12.17,1.6.28h0c-.55-.28-1.21-.62-2-1.06l-1.17-.69.34-.57,4.16,2.44-.36.61-2.18-.34a13.57,13.57,0,0,1-1.59-.32h0c.5.26,1.1.58,2,1.09l1.16.68Z" transform="translate(-33.38 -33)"/><path class="cls-3" d="M78.05,73.31a1.75,1.75,0,0,1-.15.71c-.4,1-1.47,1.28-2.85.73-1.73-.67-2-1.83-1.67-2.63a1.3,1.3,0,0,1,.34-.54l.55.37a1.09,1.09,0,0,0-.26.39c-.19.49.06,1.16,1.29,1.64s1.81.19,2-.34a1.33,1.33,0,0,0,.1-.48Z" transform="translate(-33.38 -33)"/><polygon class="cls-3" points="40.75 36.8 45.41 38.06 45.2 38.8 40.55 37.54 40.75 36.8"/><path class="cls-3" d="M77.62,67.36l-1.13,0h-1.1v0l1.07.35,1,.37Zm.47,1,1.19.45-.11.73-4.6-1.78.13-.88,4.91-.27-.11.74-1.27.07Z" transform="translate(-33.38 -33)"/><polygon class="cls-3" points="41.52 31.76 41.54 31 45.71 31.09 45.74 29.8 46.38 29.81 46.34 31.86 41.52 31.76"/><path d="M104.62,77.58a11.64,11.64,0,0,1-4.47.7c-7.65,0-11.27-6.23-11.27-14.72,0-11.24,6.23-15.62,12-15.62a7.9,7.9,0,0,1,4,.8l-1,4.86a5.87,5.87,0,0,0-2.7-.57C98,53,95,55.86,95,63.25c0,7.12,2.7,9.9,6.24,9.9a10.33,10.33,0,0,0,2.79-.44Z" transform="translate(-33.38 -33)"/><path d="M112.36,63.11c0,6.77,1.28,10.22,3.63,10.22s3.4-4.42,3.4-10.48c0-5.22-.79-10-3.45-10-2.3,0-3.58,3.8-3.58,10.21m13-.53c0,11.24-4,15.79-9.64,15.79-6.77,0-9.42-7.16-9.42-15.34s3.22-15.18,9.86-15.18c7.16,0,9.2,7.92,9.2,14.73" transform="translate(-33.38 -33)"/><path d="M134.87,61.65h1.07c2.52,0,3.93-2,3.93-4.64s-1-4.34-3.58-4.42a4.37,4.37,0,0,0-1.42.17Zm-5.79-13a34.87,34.87,0,0,1,6.32-.58c3.19,0,6.06.49,8,2.22s2.38,3.62,2.38,6.19a7.91,7.91,0,0,1-4.6,7.43V64c2,.84,3.06,2.7,3.63,5.93a48.85,48.85,0,0,0,1.9,8.09h-6.06a36.65,36.65,0,0,1-1.5-7.17c-.53-3.67-1.46-4.73-3.36-4.73h-.89V78h-5.79Z" transform="translate(-33.38 -33)"/><path d="M155.66,61.65h1.06c2.52,0,3.94-2,3.94-4.64s-1-4.34-3.58-4.42a4.37,4.37,0,0,0-1.42.17Zm-5.79-13a34.87,34.87,0,0,1,6.32-.58c3.19,0,6.06.49,8,2.22s2.39,3.62,2.39,6.19a7.91,7.91,0,0,1-4.6,7.43V64c2,.84,3.05,2.7,3.63,5.93a47.83,47.83,0,0,0,1.9,8.09h-6.06a35.89,35.89,0,0,1-1.5-7.17c-.53-3.67-1.46-4.73-3.36-4.73h-.89V78h-5.79Z" transform="translate(-33.38 -33)"/><rect x="137.28" y="15.21" width="5.79" height="29.81"/><polygon points="160.81 31.93 154.04 31.93 154.04 39.98 161.69 39.98 161.69 45.02 148.25 45.02 148.25 15.21 161.21 15.21 161.21 20.25 154.04 20.25 154.04 27.11 160.81 27.11 160.81 31.93"/><path d="M199.05,78V48.21h5.31L209,59.88c.93,2.3,2.34,6.15,3.18,8.72h.09c-.18-3.14-.57-8.32-.57-13.8V48.21h5.08V78h-5.31L206.88,66.7a87,87,0,0,1-3-9h-.09c.18,3,.4,7.61.4,13.62V78Z" transform="translate(-33.38 -33)"/><polygon points="191.72 20.56 186.46 20.56 186.46 15.21 202.83 15.21 202.83 20.56 197.52 20.56 197.52 45.02 191.72 45.02 191.72 20.56"/><polygon points="218.44 31.93 211.67 31.93 211.67 39.98 219.32 39.98 219.32 45.02 205.88 45.02 205.88 15.21 218.84 15.21 218.84 20.25 211.67 20.25 211.67 27.11 218.44 27.11 218.44 31.93"/><path d="M256,72.09a11.35,11.35,0,0,0,4.91,1.15c2.7,0,4.07-1.41,4.07-3.36,0-2.17-1.33-3.23-3.85-4.86-4.07-2.48-5.62-5.62-5.62-8.32,0-4.78,3.19-8.76,9.38-8.76A9.91,9.91,0,0,1,269.6,49l-.93,5a7.08,7.08,0,0,0-3.76-1c-2.48,0-3.67,1.51-3.67,3.1,0,1.77.88,2.7,4.07,4.65,4,2.38,5.39,5.39,5.39,8.53,0,5.44-4,9-9.82,9a13.13,13.13,0,0,1-5.7-1.19Z" transform="translate(-33.38 -33)"/></svg>
