<?xml version="1.0" encoding="utf-8"?>
<!-- Generator: Adobe Illustrator 21.0.0, SVG Export Plug-In . SVG Version: 6.00 Build 0)  -->
<svg version="1.1" id="Layer_1" xmlns="http://www.w3.org/2000/svg" xmlns:xlink="http://www.w3.org/1999/xlink" x="0px" y="0px"
	 viewBox="0 0 512 512" style="enable-background:new 0 0 512 512;" xml:space="preserve">
<style type="text/css">
	.st0{fill:#FFFFFF;}
</style>
<g>
	<g>
		<g>
			<g>
				<path class="st0" d="M333,411c-6,0-11.4-3.9-13.5-9.5c-2-5.5-0.3-11.9,4.2-15.7c4.7-4,11.6-4.5,16.8-1.2c5,3.1,7.6,9.2,6.5,14.9
					C345.7,406.1,339.7,411,333,411L333,411z"/>
			</g>
		</g>
		<g>
			<g>
				<path class="st0" d="M256.2,478.4c-3.3,0-6.5-1.1-9.2-3.3c-7.4-6.2-182.4-153.5-217.3-206.4C7.4,234.9-1.7,203.8,0.2,168.1
					c1.9-36,17.1-69.7,42.9-95.1c26.1-25.7,60.2-39.9,95.9-39.9c55.3,0,97.7,41.1,117.2,64.2c20.1-23,63.5-64.2,116.7-64.2
					c35.8,0,69.8,14.2,95.9,39.9c25.7,25.4,40.9,59.1,42.9,95.1c2.5,45.7-14.5,77.8-29.5,100.7c-9.1,13.8-78.8,80.8-92.7,94
					c-5.7,5.5-14.8,5.3-20.2-0.5c-5.5-5.7-5.3-14.8,0.5-20.2c39.7-38,83.7-81.7,88.6-89.1c19-28.9,26.4-53.9,24.8-83.4
					C480,110.1,430.6,61.7,372.9,61.7c-57.4,0-104.8,66.3-105.2,67c-2.7,3.9-7.2,6.1-11.9,6.1c-4.7-0.1-9.1-2.5-11.7-6.4
					c-0.4-0.6-45.2-66.7-105.1-66.7C81.4,61.7,32,110.1,28.8,169.6c-1.6,29.3,6.1,55,24.8,83.4C82,296.1,220.3,414.9,256.7,445.8
					l20.6-15.8c6.3-4.8,15.2-3.6,20,2.6c4.8,6.3,3.6,15.2-2.6,20l-29.7,22.8C262.4,477.5,259.3,478.4,256.2,478.4L256.2,478.4z"/>
			</g>
		</g>
	</g>
</g>
</svg>
