<svg id="Capa_1" data-name="Capa 1" xmlns="http://www.w3.org/2000/svg" viewBox="0 0 129.24 52"><title>ministerio</title><path d="M166.39,80.16c-.08-1.28-.16-3-.14-4.48h0c-.24,1.45-.61,3.12-.87,4.16l-1.18,4.84h-1.85l-1.12-4.76c-.27-1.09-.63-2.77-.85-4.24h0c0,1.47-.14,3.17-.2,4.52l-.24,4.7h-2.25l1-13.54h2.8l1.08,4.9c.36,1.71.7,3.22.94,4.74h.06c.21-1.5.51-3,.85-4.74l1.08-4.9h2.78L169,84.9h-2.35Z" transform="translate(-157.61 -71)"/><path d="M173.31,72.49a1.35,1.35,0,0,1-1.39,1.42,1.32,1.32,0,0,1-1.31-1.42,1.35,1.35,0,1,1,2.7,0ZM170.67,84.9V75.08h2.64V84.9Z" transform="translate(-157.61 -71)"/><path d="M175.16,78c0-1.06,0-2-.08-3h2.26l.15,1.12h0a2.8,2.8,0,0,1,2.37-1.28c1.86,0,2.61,1.48,2.61,3.67V84.9h-2.63V78.75c0-.82-.21-1.62-1-1.62-.44,0-.8.3-1,.88a2.56,2.56,0,0,0-.14.9v6h-2.63Z" transform="translate(-157.61 -71)"/><path d="M187,72.49a1.33,1.33,0,0,1-1.38,1.42,1.32,1.32,0,0,1-1.31-1.42,1.35,1.35,0,1,1,2.69,0ZM184.36,84.9V75.08H187V84.9Z" transform="translate(-157.61 -71)"/><path d="M188.76,82.53a3.7,3.7,0,0,0,1.77.52c.68,0,1.06-.3,1.06-.88s-.28-.82-1.14-1.33c-1.59-.9-2-1.93-2-2.83a3,3,0,0,1,3.23-3.11,4.33,4.33,0,0,1,2,.46l-.46,1.93a2.72,2.72,0,0,0-1.36-.4c-.69,0-1,.4-1,.84s.22.68,1.15,1.23a3.32,3.32,0,0,1,2,3c0,2-1.44,3.09-3.47,3.09a4.22,4.22,0,0,1-2.23-.56Z" transform="translate(-157.61 -71)"/><path d="M198.45,72.53v2.55h1.93V77h-1.93v4.48c0,1.14.48,1.42,1,1.42a4,4,0,0,0,.7-.06l0,2a6.29,6.29,0,0,1-1.6.18,2.73,2.73,0,0,1-1.91-.62,3.63,3.63,0,0,1-.82-2.81V77h-1.17V75.08h1.17V73.35Z" transform="translate(-157.61 -71)"/><path d="M203.69,80.92A1.89,1.89,0,0,0,205.76,83a5.89,5.89,0,0,0,1.87-.32l.34,1.89a7.92,7.92,0,0,1-2.67.44c-2.69,0-4.16-1.77-4.16-4.84,0-3.31,1.73-5.28,3.94-5.28s3.33,1.66,3.33,4.66a9.09,9.09,0,0,1-.08,1.36ZM206,79.08c0-1.27-.32-2.25-1.1-2.25s-1.21,1.26-1.23,2.25Z" transform="translate(-157.61 -71)"/><path d="M209.91,78c0-1,0-2-.08-3h2.26l.15,1.42h.08a2.28,2.28,0,0,1,1.92-1.6,1.91,1.91,0,0,1,.57.06v2.59a4.8,4.8,0,0,0-.57,0,1.71,1.71,0,0,0-1.58,1.38,3.29,3.29,0,0,0-.12,1v5h-2.63Z" transform="translate(-157.61 -71)"/><path d="M218.45,72.49a1.34,1.34,0,0,1-1.39,1.42,1.32,1.32,0,0,1-1.31-1.42,1.35,1.35,0,1,1,2.7,0ZM215.81,84.9V75.08h2.64V84.9Z" transform="translate(-157.61 -71)"/><path d="M227.47,80c0,4.1-2.27,5.1-3.76,5.1-2.35,0-3.76-1.85-3.76-5,0-3.54,1.85-5.12,3.8-5.12C226.08,74.9,227.47,76.85,227.47,80Zm-4.9,0c0,1.69.26,3.09,1.2,3.09s1.09-1.64,1.09-3.09-.23-3-1.13-3S222.57,78.61,222.57,80Z" transform="translate(-157.61 -71)"/><path d="M239.29,71V82c0,.92,0,2,.08,2.91h-2.28L237,83.8h-.06a2.38,2.38,0,0,1-2,1.26c-2.09,0-3.06-2.31-3.06-5.06,0-3.41,1.51-5.1,3.16-5.1a1.69,1.69,0,0,1,1.64,1h0V71Zm-2.64,7.85a2.83,2.83,0,0,0,0-.58c-.08-.6-.4-1.14-.92-1.14-.93,0-1.27,1.34-1.27,2.93,0,1.87.51,2.85,1.23,2.85.34,0,.72-.18.92-.86a1.72,1.72,0,0,0,.08-.62Z" transform="translate(-157.61 -71)"/><path d="M243.35,80.92A1.88,1.88,0,0,0,245.42,83a5.87,5.87,0,0,0,1.86-.32l.35,1.89A8,8,0,0,1,245,85c-2.69,0-4.15-1.77-4.15-4.84,0-3.31,1.72-5.28,3.93-5.28s3.34,1.66,3.34,4.66a9.09,9.09,0,0,1-.08,1.36Zm2.33-1.84c0-1.27-.32-2.25-1.11-2.25s-1.2,1.26-1.22,2.25Z" transform="translate(-157.61 -71)"/><path d="M160.19,90.46h2.63v9.22c0,3.89-1.88,4.48-3.79,4.48a3.79,3.79,0,0,1-1.33-.2l.22-2.21a2.81,2.81,0,0,0,.87.1c.76,0,1.4-.3,1.4-2Z" transform="translate(-157.61 -71)"/><path d="M172,101c0,1,0,2.07.08,3h-2.27l-.14-1h0a2.81,2.81,0,0,1-2.29,1.21c-1.87,0-2.61-1.39-2.61-4v-6h2.63v5.67c0,1.28.26,2.11,1,2.11a.93.93,0,0,0,.86-.67,1.81,1.81,0,0,0,.17-.84V94.17H172Z" transform="translate(-157.61 -71)"/><path d="M173.76,101.63a3.67,3.67,0,0,0,1.77.52c.68,0,1.06-.3,1.06-.89s-.28-.82-1.14-1.32c-1.59-.9-2-1.93-2-2.83A3,3,0,0,1,176.69,94a4.33,4.33,0,0,1,2,.46l-.46,1.93a2.72,2.72,0,0,0-1.37-.4c-.68,0-1,.4-1,.85s.22.68,1.14,1.22a3.33,3.33,0,0,1,2,3c0,2-1.44,3.1-3.47,3.1a4.1,4.1,0,0,1-2.23-.57Z" transform="translate(-157.61 -71)"/><path d="M183.45,91.62v2.55h1.92V96h-1.92v4.48c0,1.15.48,1.43,1,1.43a4,4,0,0,0,.7-.06l0,2a6.29,6.29,0,0,1-1.6.18,2.69,2.69,0,0,1-1.91-.63,3.58,3.58,0,0,1-.83-2.81V96h-1.16V94.17h1.16V92.45Z" transform="translate(-157.61 -71)"/><path d="M189.23,91.58A1.34,1.34,0,0,1,187.85,93a1.32,1.32,0,0,1-1.31-1.43,1.35,1.35,0,1,1,2.69,0ZM186.6,104V94.17h2.63V104Z" transform="translate(-157.61 -71)"/><path d="M196.53,103.84a4.68,4.68,0,0,1-1.67.28c-2.49,0-4.12-1.73-4.12-4.92s1.79-5.15,4.5-5.15a3.9,3.9,0,0,1,1.45.26l-.34,2.07a2.82,2.82,0,0,0-1-.18c-1.26,0-2,1.21-2,2.92s.75,2.85,2,2.85a2.19,2.19,0,0,0,1-.2Z" transform="translate(-157.61 -71)"/><path d="M200.21,91.58A1.34,1.34,0,0,1,198.82,93a1.32,1.32,0,0,1-1.3-1.43,1.35,1.35,0,1,1,2.69,0ZM197.58,104V94.17h2.63V104Z" transform="translate(-157.61 -71)"/><path d="M208.69,101.75a15.89,15.89,0,0,0,.14,2.25h-2.35l-.14-1h-.06a2.59,2.59,0,0,1-2.17,1.13,2.72,2.72,0,0,1-2.59-3c0-2.59,2.26-3.63,4.49-3.65v-.22A1.24,1.24,0,0,0,204.63,96a3.76,3.76,0,0,0-2,.58l-.48-1.78a6.58,6.58,0,0,1,3.07-.75c3,0,3.48,2.09,3.48,4.1Zm-2.59-2.54c-.87,0-2.09.33-2.09,1.69,0,1,.54,1.33.94,1.33a1.12,1.12,0,0,0,1.08-.85,1.59,1.59,0,0,0,.07-.46Z" transform="translate(-157.61 -71)"/><path d="M215.72,94.17l1,5.13c.12.58.2,1.1.28,1.64h0c.08-.5.16-1.06.24-1.6l.8-5.17h2.59l-2,7.6a13.21,13.21,0,0,1-2.19,5,5,5,0,0,1-2.23,1.54l-.81-2.26a4.36,4.36,0,0,0,1.31-.81,3.59,3.59,0,0,0,.82-1.18.94.94,0,0,0,.14-.43,1.17,1.17,0,0,0-.08-.36l-2.71-9.1Z" transform="translate(-157.61 -71)"/><path d="M225,90.66a12.15,12.15,0,0,1,2.67-.26,5.24,5.24,0,0,1,3.76,1.2c1.16,1.05,1.76,2.83,1.76,5.47s-.7,4.68-1.88,5.72a5.78,5.78,0,0,1-4.12,1.31,15.31,15.31,0,0,1-2.19-.16Zm2.63,11.25a1.79,1.79,0,0,0,.46,0c1.27,0,2.37-1.25,2.37-5,0-2.78-.72-4.46-2.31-4.46a1.49,1.49,0,0,0-.52.06Z" transform="translate(-157.61 -71)"/><path d="M236.87,100a1.88,1.88,0,0,0,2.07,2.09,5.87,5.87,0,0,0,1.86-.32l.35,1.88a7.73,7.73,0,0,1-2.68.45c-2.69,0-4.16-1.77-4.16-4.84C234.31,96,236,94,238.25,94s3.34,1.67,3.34,4.66a9.15,9.15,0,0,1-.08,1.37Zm2.33-1.85c0-1.26-.32-2.25-1.11-2.25s-1.2,1.27-1.22,2.25Z" transform="translate(-157.61 -71)"/><path d="M243.08,97.13c0-1,0-2-.08-3h2.27l.14,1.43h.08A2.29,2.29,0,0,1,247.42,94a1.88,1.88,0,0,1,.56.06v2.59a4.7,4.7,0,0,0-.56,0A1.72,1.72,0,0,0,245.83,98a3.17,3.17,0,0,0-.12,1v5h-2.63Z" transform="translate(-157.61 -71)"/><path d="M251.12,100a1.88,1.88,0,0,0,2.07,2.09,5.87,5.87,0,0,0,1.86-.32l.35,1.88a7.73,7.73,0,0,1-2.68.45c-2.69,0-4.16-1.77-4.16-4.84,0-3.32,1.73-5.29,3.94-5.29s3.34,1.67,3.34,4.66a9.15,9.15,0,0,1-.08,1.37Zm2.33-1.85c0-1.26-.33-2.25-1.11-2.25s-1.2,1.27-1.22,2.25Z" transform="translate(-157.61 -71)"/><path d="M262.77,103.84a4.63,4.63,0,0,1-1.67.28c-2.49,0-4.11-1.73-4.11-4.92s1.78-5.15,4.5-5.15a3.84,3.84,0,0,1,1.44.26l-.34,2.07a2.75,2.75,0,0,0-1-.18c-1.27,0-2,1.21-2,2.92s.74,2.85,2,2.85a2.15,2.15,0,0,0,1-.2Z" transform="translate(-157.61 -71)"/><path d="M263.82,90.09h2.63V95.2h0a3.31,3.31,0,0,1,.84-.83,2.73,2.73,0,0,1,1.33-.36c1.81,0,2.51,1.53,2.51,4v6h-2.63V98c0-1-.18-1.81-1-1.81-.45,0-.83.26-1,.93a3.9,3.9,0,0,0-.1.74V104h-2.63Z" transform="translate(-157.61 -71)"/><path d="M280.2,99.05c0,4.1-2.27,5.11-3.76,5.11-2.35,0-3.76-1.85-3.76-5,0-3.54,1.85-5.13,3.8-5.13C278.81,94,280.2,95.94,280.2,99.05Zm-4.91,0c0,1.69.27,3.1,1.21,3.1s1.09-1.65,1.09-3.1-.23-3-1.13-3S275.29,97.71,275.29,99.05Z" transform="translate(-157.61 -71)"/><path d="M281.61,101.63a3.66,3.66,0,0,0,1.76.52c.69,0,1.07-.3,1.07-.89s-.28-.82-1.15-1.32c-1.58-.9-2-1.93-2-2.83A3,3,0,0,1,284.54,94a4.36,4.36,0,0,1,2,.46l-.46,1.93a2.75,2.75,0,0,0-1.37-.4c-.68,0-1,.4-1,.85s.22.68,1.14,1.22a3.33,3.33,0,0,1,2,3c0,2-1.45,3.1-3.48,3.1a4.09,4.09,0,0,1-2.22-.57Z" transform="translate(-157.61 -71)"/><path d="M160.27,109.3v5.42H163V109.3h2.63v13.54H163v-5.66h-2.76v5.66h-2.63V109.3Z" transform="translate(-157.61 -71)"/><path d="M174.94,119.85c0,1,0,2.07.09,3h-2.27l-.15-1h0a2.76,2.76,0,0,1-2.29,1.21c-1.86,0-2.61-1.39-2.61-4V113h2.63v5.66c0,1.29.27,2.11,1,2.11a.93.93,0,0,0,.86-.66,2,2,0,0,0,.16-.85V113h2.63Z" transform="translate(-157.61 -71)"/><path d="M176.82,116c0-1.06,0-2-.08-3H179l.14,1.12h0a2.87,2.87,0,0,1,2.33-1.3,2.12,2.12,0,0,1,2.15,1.34h0a3.34,3.34,0,0,1,1-1,2.64,2.64,0,0,1,1.37-.36c1.77,0,2.55,1.4,2.55,3.75v6.25H186V117c0-1.1-.12-2-.91-2a1,1,0,0,0-1,.88,2.24,2.24,0,0,0-.08.7v6.23h-2.63v-6.17c0-.72-.06-1.64-.89-1.64a1.07,1.07,0,0,0-1,.88,2.54,2.54,0,0,0-.1.74v6.19h-2.63Z" transform="translate(-157.61 -71)"/><path d="M197.13,120.59a15.79,15.79,0,0,0,.14,2.25h-2.34l-.15-1h-.06a2.57,2.57,0,0,1-2.17,1.13,2.71,2.71,0,0,1-2.59-3c0-2.59,2.27-3.64,4.5-3.66v-.22a1.24,1.24,0,0,0-1.38-1.34,3.73,3.73,0,0,0-2,.58l-.48-1.79a6.73,6.73,0,0,1,3.07-.74c3,0,3.47,2.08,3.47,4.09Zm-2.59-2.53c-.86,0-2.09.32-2.09,1.69,0,1,.55,1.32,1,1.32a1.12,1.12,0,0,0,1.08-.84,1.6,1.6,0,0,0,.06-.46Z" transform="translate(-157.61 -71)"/><path d="M199,116c0-1.06,0-2-.08-3h2.27l.14,1.12h0a2.8,2.8,0,0,1,2.37-1.28c1.87,0,2.61,1.48,2.61,3.67v6.31h-2.63v-6.15c0-.82-.2-1.62-1-1.62-.44,0-.8.3-1,.88a2.56,2.56,0,0,0-.14.9v6H199Z" transform="translate(-157.61 -71)"/><path d="M215.36,117.9c0,4.1-2.27,5.1-3.75,5.1-2.35,0-3.76-1.85-3.76-5,0-3.54,1.85-5.12,3.8-5.12C214,112.84,215.36,114.78,215.36,117.9Zm-4.9,0c0,1.68.26,3.09,1.21,3.09s1.08-1.65,1.08-3.09-.22-3.06-1.12-3.06S210.46,116.55,210.46,117.9Z" transform="translate(-157.61 -71)"/><path d="M216.77,120.47a3.74,3.74,0,0,0,1.77.52c.69,0,1.07-.3,1.07-.88s-.28-.83-1.15-1.33c-1.59-.9-2-1.93-2-2.83a3,3,0,0,1,3.24-3.11,4.4,4.4,0,0,1,2,.46l-.47,1.93a2.62,2.62,0,0,0-1.36-.4c-.69,0-1,.4-1,.84s.22.68,1.15,1.22a3.36,3.36,0,0,1,2,3c0,2-1.45,3.09-3.48,3.09a4.22,4.22,0,0,1-2.23-.56Z" transform="translate(-157.61 -71)"/></svg>