<?xml version="1.0" encoding="utf-8"?>
<!-- Generator: Adobe Illustrator 21.0.0, SVG Export Plug-In . SVG Version: 6.00 Build 0)  -->
<svg version="1.1" id="Capa_1" xmlns="http://www.w3.org/2000/svg" xmlns:xlink="http://www.w3.org/1999/xlink" x="0px" y="0px"
	 viewBox="0 0 478.7 478.7" style="enable-background:new 0 0 478.7 478.7;" xml:space="preserve">
<style type="text/css">
	.st0{fill:#FFFFFF;}
</style>
<g>
	<g>
		<g>
			<path class="st0" d="M113.4,177.9c-4.8-2.6-10.9-0.9-13.5,4l-0.2,0.4c-2.6,4.8-0.9,10.9,4,13.5c1.5,0.8,3.2,1.2,4.8,1.2
				c3.5,0,6.9-1.9,8.8-5.2l0.2-0.4C120,186.6,118.2,180.5,113.4,177.9z"/>
			<path class="st0" d="M432.5,209.6c-15.7-61-59.7-111.8-119-135.5c-10.2-32-40.4-54.1-74.2-54.1c-34.7,0-64.1,22.8-74.2,54.2
				c-35.7,14.3-66.3,38.5-88.7,70.1c-14.1,20-24.3,42.1-30.3,65.4C20.4,211.5,0,233.1,0,259.3c0,26.2,20.4,47.8,46.2,49.7
				c22.1,86,100.4,149.7,193.2,149.7c92.8,0,171-63.7,193.2-149.7c25.8-1.9,46.2-23.5,46.2-49.7C478.7,233,458.3,211.5,432.5,209.6z
				 M19.9,259.3c0-13.8,9.3-25.4,22-28.9c-0.9,5.9-1.5,11.9-1.8,18c0,0.1,0,0.2,0,0.3c-0.1,1.1-0.1,2.2-0.1,3.3c0,0.4,0,0.8,0,1.3
				c0,0.8,0,1.6-0.1,2.4c0,1.2,0,2.5,0,3.7c0,1.5,0,3,0.1,4.5c0,0.5,0,0.9,0,1.4c0,1.1,0.1,2.2,0.1,3.3c0,0.5,0,0.9,0.1,1.4
				c0.1,1.4,0.2,2.7,0.3,4.1c0,0.6,0.1,1.3,0.2,1.9c0.1,0.8,0.1,1.6,0.2,2.4c0.1,0.7,0.1,1.4,0.2,2.1c0.1,0.8,0.2,1.7,0.3,2.5
				c0.1,1.1,0.3,2.2,0.4,3.3c0.1,0.6,0.2,1.2,0.3,1.9C29.3,284.7,19.9,273.1,19.9,259.3z M239.4,39.9c19.8,0,37.8,10.1,48.4,26
				c-0.2,0-0.4,0-0.6,0c-0.1,0-0.3,0-0.4,0c0,0-0.1,0-0.2,0c-31.1,0.3-56.2,25.6-56.2,56.7c0,12.1,3.8,23.6,10.6,33.1
				c-0.5,0-1.1,0-1.6,0c-32,0-58-26-58-58C181.4,65.9,207.4,39.9,239.4,39.9z M418.8,264c0,0.2,0,0.5,0,0.7c0,1.3-0.1,2.7-0.2,4
				c0,0.2,0,0.5,0,0.7c-0.1,1.3-0.2,2.7-0.3,4c0,0.3,0,0.5-0.1,0.8c-0.1,1.3-0.2,2.6-0.4,3.9c0,0.4-0.1,0.7-0.1,1.1
				c-0.1,1.2-0.3,2.4-0.4,3.5c-0.1,0.5-0.1,1-0.2,1.5c-0.1,1-0.3,2-0.4,3c-0.1,0.7-0.2,1.3-0.3,2c-0.1,0.8-0.3,1.6-0.4,2.5
				c-0.2,0.8-0.3,1.7-0.5,2.5c-0.1,0.6-0.2,1.2-0.4,1.9c-17,81.4-89.3,142.8-175.7,142.8c-86.5,0-158.8-61.4-175.8-143
				c-0.2-0.7-0.3-1.5-0.4-2.2c-0.1-0.7-0.3-1.4-0.4-2.1c-0.2-1-0.4-2-0.5-3c-0.1-0.5-0.2-0.9-0.2-1.4c-0.2-1.3-0.4-2.6-0.6-3.8
				c0-0.2-0.1-0.4-0.1-0.7c-0.2-1.5-0.4-3-0.5-4.6c0,0,0,0,0,0c-0.6-6.2-1-12.5-1-18.7c0-1.4,0-2.8,0.1-4.2c0-0.5,0-0.9,0-1.4
				c0-0.9,0.1-1.9,0.1-2.8c0-0.6,0-1.1,0.1-1.7c0-0.8,0.1-1.7,0.2-2.5c0.1-1.4,0.2-2.9,0.4-4.3c0-0.2,0-0.3,0-0.5
				c6.1-62.1,44.6-117.2,100.8-144.3c0,0.1,0,0.2,0,0.3c0,7.1,1,14,2.8,20.6c-17.9,9.5-33.6,22.2-46.8,37.8
				c-3.6,4.2-3,10.5,1.2,14.1c1.9,1.6,4.2,2.4,6.4,2.4c2.8,0,5.7-1.2,7.6-3.5c11.1-13.2,24.3-24,39.3-32.2
				c13.5,23.2,38.6,38.8,67.3,38.8c8.8,0,17.5-1.5,25.7-4.4c3.6-1.3,6.2-4.5,6.6-8.2c0.5-3.8-1.3-7.5-4.5-9.6
				c-10.6-6.8-16.9-18.4-16.9-30.9c0-19.9,15.9-36.1,35.6-36.8c66.2,17.7,115.5,71.3,129.2,136.6c0.2,1.1,0.4,2.2,0.6,3.2
				c0.1,0.6,0.2,1.1,0.3,1.7c0.2,0.9,0.3,1.8,0.5,2.7c0.1,0.5,0.2,1.1,0.3,1.6c0.2,1,0.3,2,0.4,3c0.1,0.4,0.1,0.8,0.2,1.3
				c0.4,2.9,0.7,5.8,0.9,8.8c0,0.3,0,0.7,0.1,1c0.1,1.1,0.2,2.3,0.2,3.4c0,0.4,0,0.9,0.1,1.3c0.1,1.1,0.1,2.2,0.1,3.2
				c0,0.4,0,0.8,0,1.2c0,1.5,0.1,2.9,0.1,4.4C418.9,260.9,418.8,262.4,418.8,264z M436.7,288.2c0.1-0.8,0.2-1.5,0.3-2.3
				c0.1-0.8,0.2-1.6,0.3-2.4c0.1-1,0.2-2,0.3-3c0.1-0.7,0.1-1.3,0.2-2c0.1-0.9,0.2-1.7,0.2-2.6c0-0.6,0.1-1.2,0.1-1.8
				c0.1-1.4,0.2-2.8,0.3-4.2c0-0.4,0-0.9,0.1-1.3c0.1-1.1,0.1-2.2,0.1-3.3c0-0.5,0-0.9,0-1.4c0-1.5,0.1-3,0.1-4.5c0-1.3,0-2.6,0-3.9
				c0-0.5,0-1,0-1.4c0-0.8,0-1.7-0.1-2.5c0-0.6-0.1-1.2-0.1-1.8c0-0.7-0.1-1.4-0.1-2.1c0-0.6-0.1-1.3-0.1-1.9c0-0.7-0.1-1.3-0.1-2
				c-0.1-0.7-0.1-1.3-0.2-2c-0.1-0.6-0.1-1.3-0.2-1.9c-0.1-0.7-0.1-1.3-0.2-2c-0.1-0.7-0.2-1.5-0.3-2.2c-0.1-0.8-0.2-1.6-0.3-2.5
				c-0.1-0.9-0.2-1.8-0.4-2.7c12.7,3.5,22,15.1,22,28.9C458.8,273.1,449.4,284.7,436.7,288.2z"/>
			<path class="st0" d="M203.9,270.8c-4.7-17.4-20.5-29.6-38.5-29.6c-18,0-33.9,12.2-38.5,29.6c-1.4,5.3,1.7,10.8,7.1,12.2
				c5.3,1.4,10.8-1.7,12.2-7.1c2.3-8.7,10.3-14.8,19.3-14.8c9,0,16.9,6.1,19.3,14.8c1.2,4.5,5.2,7.4,9.6,7.4c0.9,0,1.7-0.1,2.6-0.3
				C202.1,281.6,205.3,276.2,203.9,270.8z"/>
			<path class="st0" d="M313.4,241.3c-18,0-33.9,12.2-38.5,29.6c-1.4,5.3,1.7,10.8,7.1,12.2c5.3,1.4,10.8-1.7,12.2-7.1
				c2.3-8.7,10.3-14.8,19.3-14.8c9,0,16.9,6.1,19.3,14.8c1.2,4.5,5.2,7.4,9.6,7.4c0.9,0,1.7-0.1,2.6-0.3c5.3-1.4,8.5-6.9,7.1-12.2
				C347.2,253.4,331.4,241.3,313.4,241.3z"/>
			<path class="st0" d="M270.8,340.8c-5.3-1.4-10.8,1.7-12.2,7.1c-2.3,8.7-10.3,14.8-19.3,14.8c-9,0-16.9-6.1-19.3-14.8
				c-1.4-5.3-6.9-8.5-12.2-7.1c-5.3,1.4-8.5,6.9-7.1,12.2c4.7,17.4,20.5,29.6,38.5,29.6c18,0,33.9-12.2,38.5-29.6
				C279.3,347.7,276.2,342.2,270.8,340.8z"/>
		</g>
	</g>
</g>
</svg>
