<svg id="Capa_1" data-name="Capa 1" xmlns="http://www.w3.org/2000/svg" viewBox="0 0 147.05 45"><title>regstro</title><path d="M146.5,78.74a11.12,11.12,0,0,1,2.91-.34,5.46,5.46,0,0,1,4,1.27,4.76,4.76,0,0,1,1.25,3.49,4.69,4.69,0,0,1-2.86,4.59v.06c1.32.39,2,1.66,2.38,4a24.34,24.34,0,0,0,1,4.49h-2.06a22.45,22.45,0,0,1-.95-4.39c-.4-2.45-1.17-3.35-2.91-3.35h-.79v7.74h-2Zm2,8.22h.87c1.93,0,3.22-1.42,3.22-3.57s-.84-3.33-3-3.35a4.13,4.13,0,0,0-1.08.1Z" transform="translate(-145.76 -78)"/><path d="M158.56,90.08c0,3.94,1.56,4.76,3,4.76a4.52,4.52,0,0,0,2.12-.48l.34,1.48a6.57,6.57,0,0,1-2.83.61c-3.06,0-4.65-2.51-4.65-6.42,0-4.13,1.77-6.72,4.33-6.72s3.65,2.75,3.65,5.61a11.61,11.61,0,0,1-.05,1.16Zm4-1.51c0-2.53-.93-3.67-1.91-3.67-1.35,0-2,1.93-2.09,3.67Z" transform="translate(-145.76 -78)"/><path d="M174.45,94.66c0,3.35-.42,4.62-1.27,5.57a4.47,4.47,0,0,1-3.41,1.35,6,6,0,0,1-2.8-.64l.48-1.58a5.24,5.24,0,0,0,2.37.56c1.62,0,2.62-1,2.62-3.92V94.71h-.05a2.59,2.59,0,0,1-2.46,1.56c-2.27,0-3.75-2.57-3.75-6.32,0-4.71,2.14-6.64,4-6.64a2.64,2.64,0,0,1,2.38,1.62h.05l.11-1.43h1.8c0,.87-.11,2-.11,4Zm-2-6.75a3.82,3.82,0,0,0-.1-.92c-.22-.87-.69-1.93-1.85-1.93-1.48,0-2.28,2-2.28,4.81,0,3.25,1,4.73,2.28,4.73.63,0,1.42-.29,1.82-1.82a4.82,4.82,0,0,0,.13-1.17Z" transform="translate(-145.76 -78)"/><path d="M179.48,80.2a1.21,1.21,0,1,1-2.41,0,1.22,1.22,0,0,1,1.19-1.33A1.2,1.2,0,0,1,179.48,80.2Zm-2.2,16.09V83.5h2V96.29Z" transform="translate(-145.76 -78)"/><path d="M181.81,94.18a4,4,0,0,0,2.06.66A1.74,1.74,0,0,0,185.75,93c0-1-.35-1.64-1.64-2.51-1.67-1.06-2.57-2.17-2.57-3.62a3.43,3.43,0,0,1,3.52-3.55,4.27,4.27,0,0,1,2.27.67l-.53,1.53a2.93,2.93,0,0,0-1.71-.58,1.56,1.56,0,0,0-1.64,1.64c0,.84.31,1.32,1.58,2.19,1.48.95,2.65,2.11,2.65,3.89a3.58,3.58,0,0,1-3.86,3.8,4.37,4.37,0,0,1-2.52-.74Z" transform="translate(-145.76 -78)"/><path d="M192.28,80.51v3h2.46V85h-2.46v7.62c0,1.66.58,2.11,1.32,2.11a3.59,3.59,0,0,0,.82-.08l.11,1.56a4.54,4.54,0,0,1-1.51.21,2.54,2.54,0,0,1-2-.76c-.53-.59-.77-1.46-.77-3.23V85h-1.56V83.5h1.56V81.33Z" transform="translate(-145.76 -78)"/><path d="M196.51,86.8c0-1.08-.08-2.35-.1-3.3h1.82l.11,2h0a3.12,3.12,0,0,1,2.7-2.23,1.89,1.89,0,0,1,.42,0V85.4h-.42a2.76,2.76,0,0,0-2.46,2.65,6.89,6.89,0,0,0-.08,1.16v7.08h-2Z" transform="translate(-145.76 -78)"/><path d="M210.58,89.9c0,4.94-2.27,6.6-4.26,6.6-2.3,0-4.15-2.08-4.15-6.58,0-4.65,2.09-6.61,4.29-6.61S210.58,85.46,210.58,89.9Zm-6.37,0c0,2.11.37,5,2.22,5s2.11-3,2.11-5-.37-5-2.16-5S204.21,87.94,204.21,89.9Z" transform="translate(-145.76 -78)"/><path d="M217.19,78.74a11.76,11.76,0,0,1,2.94-.34,5.54,5.54,0,0,1,4,1.29,5.11,5.11,0,0,1,1.3,3.7A5.71,5.71,0,0,1,224.31,87a5.21,5.21,0,0,1-4.21,2c-.34,0-.61,0-.9,0v7.29h-2Zm2,8.56a6,6,0,0,0,.82.06c2,0,3.33-1.3,3.33-3.83,0-1.83-.74-3.47-3-3.47a4.14,4.14,0,0,0-1.14.14Z" transform="translate(-145.76 -78)"/><path d="M227.38,86.8c0-1.08-.08-2.35-.11-3.3h1.83l.1,2h.05a3.13,3.13,0,0,1,2.7-2.23,1.84,1.84,0,0,1,.42,0V85.4H232a2.77,2.77,0,0,0-2.46,2.65,8.13,8.13,0,0,0-.08,1.16v7.08h-2Z" transform="translate(-145.76 -78)"/><path d="M241.44,89.9c0,4.94-2.27,6.6-4.25,6.6-2.3,0-4.15-2.08-4.15-6.58,0-4.65,2.09-6.61,4.28-6.61S241.44,85.46,241.44,89.9Zm-6.37,0c0,2.11.37,5,2.22,5s2.12-3,2.12-5-.37-5-2.17-5S235.07,87.94,235.07,89.9Z" transform="translate(-145.76 -78)"/><path d="M244.57,83.5l1.61,7.19c.19.87.4,2,.55,3.12h.08c.14-1.06.35-2.14.53-3.12l1.59-7.19h2l-3.36,12.79h-1.8L242.45,83.5Z" transform="translate(-145.76 -78)"/><path d="M254.91,80.2a1.21,1.21,0,1,1-2.41,0,1.22,1.22,0,0,1,1.19-1.33A1.2,1.2,0,0,1,254.91,80.2Zm-2.2,16.09V83.5h2V96.29Z" transform="translate(-145.76 -78)"/><path d="M257.58,86.8c0-1.5-.08-2.27-.1-3.3h1.77l.1,1.56h.06a3.24,3.24,0,0,1,2.93-1.75c1.77,0,3.09,1.3,3.09,4.39v8.59h-2V88.07c0-1.53-.29-3-1.77-3-.85,0-1.67.72-1.91,2.06a5,5,0,0,0-.1,1.17v8h-2Z" transform="translate(-145.76 -78)"/><path d="M274.53,96a4.42,4.42,0,0,1-2.11.47c-2.81,0-4.68-2.24-4.68-6.47,0-3.68,1.85-6.67,5.05-6.67a4.12,4.12,0,0,1,1.79.4l-.39,1.67a3.26,3.26,0,0,0-1.46-.35c-2.06,0-3,2.43-3,5,0,3,1.14,4.78,3,4.78a3,3,0,0,0,1.45-.34Z" transform="translate(-145.76 -78)"/><path d="M278.47,80.2a1.21,1.21,0,1,1-2.4,0,1.22,1.22,0,0,1,1.19-1.33A1.2,1.2,0,0,1,278.47,80.2Zm-2.19,16.09V83.5h2V96.29Z" transform="translate(-145.76 -78)"/><path d="M287.89,93.39a24.08,24.08,0,0,0,.13,2.9H286.2L286.06,95H286a2.88,2.88,0,0,1-2.56,1.55c-1.69,0-3-1.42-3-3.64,0-3.23,2.56-4.63,5.44-4.66v-.39c0-1.72-.45-2.88-2-2.88a3.68,3.68,0,0,0-2.12.66l-.45-1.43a5.57,5.57,0,0,1,3-.85c2.56,0,3.65,1.67,3.65,4.52Zm-2-3.73c-1.06,0-3.52.21-3.52,3,0,1.69.85,2.27,1.56,2.27.9,0,1.64-.66,1.88-1.93a3.72,3.72,0,0,0,.08-.74Z" transform="translate(-145.76 -78)"/><path d="M290.77,78h2V96.29h-2Z" transform="translate(-145.76 -78)"/><path d="M154,104.5v15.22c0,.88.07,2.33.1,3.07h-1.74l-.14-1.59h-.07a3,3,0,0,1-2.7,1.8c-2.14,0-3.7-2.33-3.7-6.55,0-4.53,1.87-6.64,3.83-6.64a2.45,2.45,0,0,1,2.35,1.51H152V104.5Zm-2,10.38a7.86,7.86,0,0,0,0-.84c-.13-1.35-.93-2.49-1.9-2.49-1.7,0-2.28,2.36-2.28,4.9s.69,4.86,2.17,4.86c.64,0,1.51-.34,2-2.2a4.13,4.13,0,0,0,.08-.84Z" transform="translate(-145.76 -78)"/><path d="M158.29,116.58c0,3.94,1.56,4.76,3,4.76a4.57,4.57,0,0,0,2.11-.48l.35,1.48a6.6,6.6,0,0,1-2.83.61c-3.07,0-4.66-2.51-4.66-6.43,0-4.12,1.78-6.71,4.34-6.71s3.65,2.75,3.65,5.6c0,.51,0,.85-.05,1.17Zm4-1.51c0-2.54-.92-3.67-1.9-3.67-1.35,0-2,1.92-2.09,3.67Z" transform="translate(-145.76 -78)"/><path d="M170.62,104.5h2v18.29h-2Z" transform="translate(-145.76 -78)"/><path d="M182.41,119.88a26.4,26.4,0,0,0,.13,2.91h-1.82l-.13-1.35h-.08a2.89,2.89,0,0,1-2.57,1.56c-1.69,0-3-1.43-3-3.65,0-3.22,2.56-4.62,5.45-4.65v-.4c0-1.72-.45-2.88-2-2.88a3.65,3.65,0,0,0-2.11.66l-.45-1.42a5.5,5.5,0,0,1,3-.85c2.57,0,3.65,1.67,3.65,4.52Zm-2-3.73c-1.06,0-3.52.22-3.52,3,0,1.69.85,2.27,1.56,2.27.9,0,1.64-.66,1.88-1.93a3.65,3.65,0,0,0,.08-.74Z" transform="translate(-145.76 -78)"/><path d="M185,120.67a4,4,0,0,0,2.07.67,1.75,1.75,0,0,0,1.87-1.86c0-1-.34-1.64-1.64-2.51-1.66-1-2.56-2.16-2.56-3.62a3.42,3.42,0,0,1,3.52-3.54,4.28,4.28,0,0,1,2.27.66L190,112a2.94,2.94,0,0,0-1.72-.58,1.57,1.57,0,0,0-1.64,1.64c0,.85.32,1.32,1.59,2.2,1.48.95,2.64,2.11,2.64,3.88A3.58,3.58,0,0,1,187,123a4.36,4.36,0,0,1-2.51-.74Z" transform="translate(-145.76 -78)"/><path d="M197.28,105.24a11.2,11.2,0,0,1,2.93-.35,5.58,5.58,0,0,1,4,1.3,5.13,5.13,0,0,1,1.29,3.7,5.65,5.65,0,0,1-1.08,3.65,5.19,5.19,0,0,1-4.2,2,8.44,8.44,0,0,1-.9,0v7.3h-2Zm2,8.56a6.09,6.09,0,0,0,.82,0c2,0,3.33-1.29,3.33-3.83,0-1.82-.74-3.46-3-3.46a4.12,4.12,0,0,0-1.13.13Z" transform="translate(-145.76 -78)"/><path d="M208.41,116.58c0,3.94,1.56,4.76,3,4.76a4.57,4.57,0,0,0,2.11-.48l.34,1.48a6.52,6.52,0,0,1-2.82.61c-3.07,0-4.66-2.51-4.66-6.43,0-4.12,1.78-6.71,4.34-6.71s3.65,2.75,3.65,5.6a11.37,11.37,0,0,1-.06,1.17Zm4-1.51c0-2.54-.92-3.67-1.9-3.67-1.35,0-2,1.92-2.09,3.67Z" transform="translate(-145.76 -78)"/><path d="M216.56,113.3c0-1.09-.08-2.35-.11-3.31h1.83l.1,2h.06a3.1,3.1,0,0,1,2.69-2.22,2,2,0,0,1,.43,0v2.06h-.43a2.77,2.77,0,0,0-2.46,2.64,8.22,8.22,0,0,0-.07,1.16v7.09h-2Z" transform="translate(-145.76 -78)"/><path d="M222.8,120.67a4,4,0,0,0,2.06.67,1.75,1.75,0,0,0,1.88-1.86c0-1-.34-1.64-1.64-2.51-1.66-1-2.56-2.16-2.56-3.62a3.42,3.42,0,0,1,3.51-3.54,4.29,4.29,0,0,1,2.28.66L227.8,112a2.94,2.94,0,0,0-1.72-.58,1.57,1.57,0,0,0-1.64,1.64c0,.85.32,1.32,1.59,2.2,1.48.95,2.64,2.11,2.64,3.88a3.58,3.58,0,0,1-3.86,3.81,4.34,4.34,0,0,1-2.51-.74Z" transform="translate(-145.76 -78)"/><path d="M238.64,116.29c.12,4.94-2.12,6.66-4.1,6.71-2.3,0-4.2-2-4.3-6.48-.11-4.65,1.93-6.66,4.12-6.71S238.53,111.85,238.64,116.29Zm-6.37.15c0,2.12.49,5,2.34,4.94s2-3,2-5-.48-5-2.28-4.92S232.22,114.49,232.27,116.44Z" transform="translate(-145.76 -78)"/><path d="M240.92,113.3c0-1.51-.08-2.27-.11-3.31h1.77l.11,1.56h.05a3.26,3.26,0,0,1,2.94-1.74c1.77,0,3.09,1.3,3.09,4.39v8.59h-2v-8.22c0-1.54-.29-3-1.77-3-.84,0-1.66.71-1.9,2.06a4.91,4.91,0,0,0-.11,1.16v8h-2Z" transform="translate(-145.76 -78)"/><path d="M258.37,119.88a26.4,26.4,0,0,0,.13,2.91h-1.82l-.13-1.35h-.08A2.89,2.89,0,0,1,253.9,123c-1.69,0-3-1.43-3-3.65,0-3.22,2.56-4.62,5.45-4.65v-.4c0-1.72-.45-2.88-2-2.88a3.7,3.7,0,0,0-2.12.66l-.44-1.42a5.5,5.5,0,0,1,3-.85c2.57,0,3.65,1.67,3.65,4.52Zm-2-3.73c-1.06,0-3.52.22-3.52,3,0,1.69.85,2.27,1.56,2.27.9,0,1.64-.66,1.88-1.93a3.65,3.65,0,0,0,.08-.74Z" transform="translate(-145.76 -78)"/><path d="M260.91,120.67a4,4,0,0,0,2.07.67,1.75,1.75,0,0,0,1.87-1.86c0-1-.34-1.64-1.64-2.51-1.66-1-2.56-2.16-2.56-3.62a3.42,3.42,0,0,1,3.52-3.54,4.28,4.28,0,0,1,2.27.66l-.53,1.53a2.94,2.94,0,0,0-1.72-.58,1.57,1.57,0,0,0-1.64,1.64c0,.85.32,1.32,1.59,2.2,1.48.95,2.64,2.11,2.64,3.88a3.58,3.58,0,0,1-3.86,3.81,4.36,4.36,0,0,1-2.51-.74Z" transform="translate(-145.76 -78)"/></svg>