<?xml version="1.0" encoding="utf-8"?>
<!-- Generator: Adobe Illustrator 21.0.0, SVG Export Plug-In . SVG Version: 6.00 Build 0)  -->
<svg version="1.1" id="Capa_1" xmlns="http://www.w3.org/2000/svg" xmlns:xlink="http://www.w3.org/1999/xlink" x="0px" y="0px"
	 viewBox="0 0 478.7 478.7" style="enable-background:new 0 0 478.7 478.7;" xml:space="preserve">
<style type="text/css">
	.st0{fill:#FFFFFF;}
</style>
<g id="XMLID_1_">
	<g id="XMLID_2_">
		<path id="XMLID_5_" class="st0" d="M462.7,221.5l-27.7,27.7c-1.8,1.8-2.7,4.1-2.7,6.6c0,19.8-7.7,38.4-21.7,52.4L262.9,455.9
			c-5.5,5.5-14.4,5.5-19.9,0c-2.7-2.7-4.1-6.2-4.1-9.9c0-3.3,1.1-6.4,3.1-8.9l85.5-85.5c3.7-3.7,3.7-9.6,0-13.2c0,0,0,0,0,0
			c0,0,0,0,0,0c-3.7-3.6-9.6-3.6-13.2,0L211.2,441.5c-2.7,2.7-6.2,4.1-9.9,4.1c-3.8,0-7.3-1.5-9.9-4.1c-5.1-5.1-5.5-13.3-1-18.8
			l104.2-104.2c3.7-3.7,3.7-9.6,0-13.2c-3.7-3.7-9.6-3.7-13.2,0L160,426.6c-2.7,2.7-6.2,4.1-9.9,4.1c-3.8,0-7.3-1.5-9.9-4.1
			c-2.7-2.7-4.1-6.2-4.1-9.9s1.5-7.3,4.1-9.9l121.4-121.3c3.7-3.7,3.7-9.6,0-13.2c-3.7-3.6-9.6-3.6-13.2,0L139.9,380.5
			c-5.5,4.5-13.7,4.2-18.8-1c-2.7-2.7-4.1-6.2-4.1-9.9c0-3.8,1.5-7.3,4.1-9.9l35.5-35.5c3.7-3.7,3.7-9.6,0-13.2
			c-3.7-3.7-9.6-3.7-13.2,0l-18.1,18.1l-36-36c-22.7-22.7-39-51.1-47.1-82.2c-0.4-1.6-1.3-3.1-2.4-4.2L16,182.9
			c-3.7-3.6-9.6-3.7-13.2,0c-3.7,3.7-3.7,9.6,0,13.2l21.9,21.9c9.2,33.3,26.9,63.7,51.3,88.2l36,36l-4.1,4.1
			c-6.2,6.2-9.6,14.4-9.6,23.2c0,8.8,3.4,17,9.6,23.2c3.9,3.9,8.5,6.6,13.5,8.1c-2.7,4.8-4.1,10.2-4.1,15.8c0,8.8,3.4,17,9.6,23.2
			c6.2,6.2,14.4,9.6,23.2,9.6c7.4,0,14.5-2.5,20.3-7c1.6,4.5,4.2,8.8,7.8,12.4c6.2,6.2,14.4,9.6,23.2,9.6c7.7,0,15-2.6,20.8-7.5
			c1.6,4.6,4.2,8.7,7.7,12.3c6.4,6.4,14.8,9.6,23.2,9.6c8.4,0,16.8-3.2,23.2-9.6l12-12l8.4,8.4c6.4,6.4,14.8,9.6,23.2,9.6
			s16.8-3.2,23.2-9.6c5.2-5.2,8.4-11.9,9.3-19.1c1.8,0.3,3.7,0.5,5.6,0.5c8.4,0,16.8-3.2,23.2-9.6c6.2-6.2,9.6-14.4,9.6-23.2
			c0-0.1,0-0.2,0-0.4c0.1,0,0.2,0,0.4,0c8.4,0,16.8-3.2,23.2-9.6c6.2-6.2,9.6-14.4,9.6-23.2c0-1.6-0.1-3.2-0.3-4.7
			c7.4-0.8,14.3-4,19.7-9.4c6.2-6.2,9.6-14.4,9.6-23.2c0-8.8-3.4-17-9.6-23.2l-9.9-9.9c10.9-14.8,17.2-32.4,18-51.1l25-25
			c3.7-3.7,3.7-9.6,0-13.2C472.3,217.8,466.4,217.8,462.7,221.5L462.7,221.5z M329.6,452.3c-5.5,5.5-14.4,5.5-19.9,0l-8.3-8.3
			l19.9-19.9l4.7,4.7l3.5,3.5c2.7,2.7,4.1,6.2,4.1,9.9C333.7,446.1,332.2,449.6,329.6,452.3L329.6,452.3z M371.7,414.2
			c0,3.8-1.5,7.3-4.1,9.9c-5.5,5.5-14.4,5.5-19.9,0l-4.9-4.9l0,0l-8.3-8.3l19.9-19.9l13.2,13.2C370.3,406.9,371.7,410.4,371.7,414.2
			L371.7,414.2z M400.7,391c-5.5,5.5-14.4,5.5-19.9,0l-13.2-13.2l19.9-19.9l13.2,13.2c2.7,2.7,4.1,6.2,4.1,9.9
			C404.8,384.8,403.4,388.4,400.7,391z M429.7,353.8c-2.7,2.7-6.2,4.1-9.9,4.1c-3.8,0-7.3-1.5-9.9-4.1l-9.1-9.1l19.9-19.9l9.1,9.1
			c2.7,2.7,4.1,6.2,4.1,9.9C433.8,347.6,432.3,351.1,429.7,353.8z"/>
		<path id="XMLID_4_" class="st0" d="M110.9,124.2c1.8,1.8,4.1,2.7,6.6,2.7h48.3c34.9,0,69,12.1,96.1,34.1l76,61.7
			c-18.6,13-43.5,14.7-63.9,3.7l-51.7-28c-2.2-1.2-4.8-1.5-7.2-0.7c-32.7,9.9-67.2,10-99.9,0.3l-0.9-0.3c-5-1.5-10.2,1.4-11.6,6.3
			s1.4,10.2,6.3,11.6l0.9,0.3c35,10.4,71.8,10.6,106.9,0.8l13.5,7.3l-27.4,27.4c-3.7,3.7-3.7,9.6,0,13.2c1.8,1.8,4.2,2.7,6.6,2.7
			s4.8-0.9,6.6-2.7l31.3-31.3l17.7,9.6c11.7,6.4,24.6,9.6,37.7,9.6c3.8,0,7.7-0.3,11.6-0.8c17.1-2.5,32.6-10.3,44.8-22.5
			c1.9-1.9,2.9-4.5,2.7-7.1c-0.1-2.6-1.4-5.1-3.4-6.8L283,154c22.5-13.9,48.2-21.4,74.8-21.6c2.5,0,4.8-1,6.5-2.7L476,18.1
			c3.7-3.7,3.7-9.6,0-13.2c-3.7-3.6-9.6-3.6-13.2,0l-109,109c-30.9,0.9-60.6,10.5-86.2,27.9c-29.3-21.7-65.2-33.5-101.7-33.5h-44.4
			L16,2.7c-3.7-3.7-9.6-3.7-13.2,0c-3.7,3.7-3.7,9.6,0,13.2L110.9,124.2z"/>
		<path id="XMLID_3_" class="st0" d="M173.1,281.2c-1.7,1.7-2.7,4.2-2.7,6.6c0,2.5,1,4.9,2.7,6.6c1.7,1.7,4.2,2.7,6.6,2.7
			s4.9-1,6.6-2.7c1.7-1.7,2.7-4.1,2.7-6.6c0-2.5-1-4.9-2.7-6.6s-4.2-2.7-6.6-2.7C177.2,278.4,174.8,279.4,173.1,281.2z"/>
	</g>
</g>
</svg>
